<?xml version="1.0" encoding="utf-8"?>
<!-- Generator: Adobe Illustrator 18.1.0, SVG Export Plug-In . SVG Version: 6.00 Build 0)  -->
<!DOCTYPE svg PUBLIC "-//W3C//DTD SVG 1.1//EN" "http://www.w3.org/Graphics/SVG/1.1/DTD/svg11.dtd">
<svg version="1.1" xmlns="http://www.w3.org/2000/svg" xmlns:xlink="http://www.w3.org/1999/xlink" x="0px" y="0px"
	 viewBox="0 0 70.5 151.3" enable-background="new 0 0 70.5 151.3" xml:space="preserve">
<g id="Слой_6" display="none">
	<rect id="XMLID_2_" x="-453.4" y="-85.1" display="inline" fill="#4891C2" width="1220.5" height="801.9"/>
</g>
<g id="Слой_5">
</g>
<g id="Слой_4">
</g>
<g id="Слой_2">
</g>
<g id="Слой_7" display="none">
</g>
<g id="Слой_8">
	<g id="XMLID_195_">
		<g id="XMLID_116_">
			<path fill="#C25545" d="M13.8,21.4c0,0,0.9-9.1,2.5-12.8c2.4-5.5,6.5-8.6,7.8-8c1.3,0.6-2.7,2.7-4.6,9.1
				c-2.3,8-1.8,13.5-1.8,13.5"/>
			<path fill="#252222" d="M17.3,23.2c0-0.2-0.6-5.7,1.8-13.7c1.1-3.7,2.9-6.1,4-7.5c0.3-0.4,0.6-0.8,0.8-1.1
				c-1.1-0.1-4.8,2.4-7.1,7.7c-1.6,3.6-2.5,12.6-2.5,12.7l-1-0.1c0-0.4,1-9.2,2.6-13c2.3-5.3,6.6-9,8.5-8.3c0.4,0.2,0.5,0.4,0.5,0.6
				c0.1,0.5-0.3,1.1-1,2c-1,1.3-2.8,3.6-3.9,7.1c-2.3,7.8-1.8,13.2-1.7,13.3L17.3,23.2z"/>
		</g>
		<g id="XMLID_115_">
			<path fill="#C25545" d="M56.4,21.4c0,0-0.9-9.1-2.5-12.8c-2.4-5.5-6.5-8.6-7.8-8c-1.3,0.6,2.7,2.7,4.6,9.1
				c2.3,8,1.8,13.5,1.8,13.5"/>
			<path fill="#252222" d="M52.9,23.2l-1-0.1c0-0.1,0.5-5.5-1.7-13.3c-1-3.6-2.8-5.8-3.9-7.1c-0.7-0.9-1.1-1.5-1-2
				c0-0.2,0.2-0.4,0.5-0.6c1.8-0.8,6.2,2.9,8.5,8.3c1.6,3.7,2.5,12.6,2.6,13l-1,0.1c0-0.1-0.9-9.1-2.5-12.7c-2.3-5.4-6-7.9-7.1-7.8
				c0.1,0.2,0.5,0.7,0.8,1.1c1.1,1.4,2.9,3.7,4,7.5C53.5,17.5,52.9,23,52.9,23.2z"/>
		</g>
		<g id="XMLID_119_">
			<path fill="#D96F46" d="M69.8,142c-0.3,2.2-2.5,5.5-6.1,6.1c-6,1.1-11-2.5-11-2.5s-2.2,4.3-7.2,5c-8.5,1.2-10.3-6.3-10.3-6.3
				s-1.8,7.5-10.3,6.3c-5-0.7-7.2-5-7.2-5s-4.9,3.6-11,2.5c-3.6-0.7-5.8-4-6.1-6.1C0,136.9,1,121.7,3,108.8
				c1.5-9.9,5.5-25.1,8.1-34.2c1.4-4.9,1.5-10,0.4-14.9c-1-4.2-2-9.5-2.4-14.5c-0.6-9,2.2-18.7,3.7-22.7c0.4-1.1,1.5-1.4,2.5-0.9
				c4.6,2.4,9,6.9,12.9,13.7c2.8,4.8,4.5,8.3,5.5,10.7c0.6,1.4,2.6,1.4,3.2,0c1.1-2.4,2.8-5.9,5.5-10.7c3.8-6.7,8.3-11.3,12.9-13.7
				c1-0.5,2.1-0.1,2.5,0.9c1.5,4,4.3,13.7,3.7,22.7c-0.3,4.9-1.4,10.3-2.4,14.5c-1.2,4.9-1,10,0.4,14.9h0c2.6,9.1,6.6,24.3,8.1,34.2
				C69.5,121.7,70.5,136.9,69.8,142z"/>
			<path fill="#252222" d="M43.7,151.3c-5.2,0-7.6-3.5-8.5-5.5c-0.9,2-3.2,5.5-8.5,5.5c-0.6,0-1.2,0-1.9-0.1
				c-4.2-0.6-6.5-3.6-7.3-4.8c-1.2,0.7-4.4,2.5-8.4,2.5c-0.8,0-1.7-0.1-2.5-0.2c-3.9-0.7-6.2-4.4-6.5-6.6
				c-0.7-5.3,0.3-20.6,2.2-33.4C4,98.6,8.2,82.9,10.6,74.4c1.4-4.8,1.5-9.9,0.4-14.6c-0.9-3.8-2-9.4-2.4-14.6
				c-0.6-8.8,2.1-18.5,3.8-22.9c0.3-0.9,1.1-1.5,2.1-1.5c0.4,0,0.8,0.1,1.1,0.3c4.8,2.5,9.3,7.3,13.1,13.9c2.3,4.1,4.2,7.7,5.6,10.8
				c0.2,0.5,0.6,0.7,1.1,0.7s0.9-0.3,1.1-0.7c1.4-3.1,3.2-6.7,5.6-10.8c3.7-6.5,8.3-11.3,13.1-13.9c0.4-0.2,0.8-0.3,1.1-0.3
				c0.9,0,1.7,0.6,2.1,1.5c1.7,4.4,4.3,14.1,3.8,22.9c-0.3,5.1-1.5,10.7-2.4,14.6c-1.1,4.7-1,9.8,0.4,14.6l0.2,0.6h0
				c2.4,8.6,6.4,23.8,7.9,33.6c1.9,12.8,2.9,28.1,2.2,33.4c-0.3,2.2-2.6,5.8-6.5,6.6c-0.8,0.1-1.6,0.2-2.5,0.2
				c-4.1,0-7.3-1.7-8.4-2.5c-0.8,1.2-3.1,4.2-7.3,4.8C44.9,151.3,44.3,151.3,43.7,151.3z M35.2,142.3l0.5,2.1c0.1,0.2,1.5,6,8,6
				c0.6,0,1.1,0,1.7-0.1c4.7-0.7,6.8-4.7,6.8-4.7l0.3-0.5l0.5,0.3c0,0,3.6,2.6,8.3,2.6c0.8,0,1.5-0.1,2.3-0.2
				c3.5-0.6,5.4-3.8,5.7-5.7c0.7-5.2-0.4-20.6-2.2-33.1c-1.5-10-5.7-25.7-8.1-34.2L58.8,74h0c-1.2-4.8-1.3-9.8-0.2-14.5
				c0.9-3.8,2-9.3,2.4-14.4c0.6-8.6-2.1-18.2-3.7-22.5c-0.3-0.7-1.1-1-1.8-0.6c-4.6,2.4-9,7.1-12.7,13.5c-2.3,4.1-4.2,7.7-5.5,10.7
				c-0.4,0.8-1.2,1.3-2.1,1.3s-1.7-0.5-2.1-1.3c-1.3-3-3.2-6.6-5.5-10.7c-3.6-6.4-8-11-12.7-13.5c-0.7-0.4-1.5-0.1-1.8,0.6
				C11.6,27,9,36.6,9.5,45.2c0.3,5.1,1.5,10.6,2.4,14.4c1.2,4.9,1,10.1-0.4,15.1C9.2,83.1,5,98.8,3.5,108.8
				c-1.9,12.5-2.9,28-2.2,33.1c0.3,1.9,2.2,5.1,5.7,5.7c0.7,0.1,1.5,0.2,2.3,0.2c4.7,0,8.3-2.5,8.3-2.6L18,145l0.3,0.5
				c0,0,2.2,4,6.8,4.7c0.6,0.1,1.2,0.1,1.7,0.1c6.5,0,8-6,8-6L35.2,142.3z"/>
		</g>
		<g id="XMLID_117_">
			<path fill="#252222" d="M35.9,70.8c-0.4,0-0.7,0-0.7,0c0,0-6.9,0.2-15.9-1.9c-3.7-0.9-7.3-3-7.5-3.1l0.5-0.9c0,0,3.6,2.1,7.2,3
				c8.9,2.1,15.6,1.9,15.7,1.9c0.1,0,6.8,0.2,15.7-1.9c3.6-0.9,7.1-3,7.2-3l0.5,0.9c-0.2,0.1-3.7,2.2-7.5,3.1
				C43.8,70.6,37.8,70.8,35.9,70.8z"/>
		</g>
		<g id="XMLID_118_">
			<path fill="#252222" d="M17.8,146.2c-0.3,0-0.5-0.2-0.5-0.5c0-0.2-0.8-20.9-0.5-39.5c0.3-18.8,3.3-35.5,3.6-37.4
				C19.7,67.5,15,58.6,13.7,53c-3.6-15.4,0.8-23.7,1-24.1c0.1-0.2,0.4-0.3,0.7-0.2c0.2,0.1,0.3,0.4,0.2,0.7c0,0.1-4.4,8.4-0.9,23.4
				c1.3,5.8,6.7,15.6,6.7,15.7c0.1,0.1,0.1,0.2,0.1,0.3c0,0.2-3.3,17.6-3.6,37.4c-0.3,18.6,0.4,39.3,0.5,39.5
				C18.3,146,18.1,146.2,17.8,146.2C17.8,146.2,17.8,146.2,17.8,146.2z"/>
		</g>
		<g id="XMLID_120_">
			<path fill="#252222" d="M52.7,146.2C52.7,146.2,52.7,146.2,52.7,146.2c-0.3,0-0.5-0.2-0.5-0.5c0-0.2,0.8-20.9,0.5-39.5
				c-0.3-19.8-3.6-37.2-3.6-37.4c0-0.1,0-0.2,0.1-0.3c0.1-0.1,5.4-9.9,6.7-15.7c3.5-15-0.9-23.3-0.9-23.4c-0.1-0.2,0-0.5,0.2-0.7
				c0.2-0.1,0.5,0,0.7,0.2c0.2,0.3,4.6,8.7,1,24.1c-1.3,5.6-6,14.5-6.7,15.8c0.3,1.9,3.3,18.6,3.6,37.4c0.3,18.6-0.4,39.3-0.5,39.5
				C53.2,146,53,146.2,52.7,146.2z"/>
		</g>
		<g id="XMLID_122_">
			<path fill="#252222" d="M26.4,146.2c-0.3,0-0.5-0.2-0.5-0.5c0-0.3-0.8-30-0.7-43.1c0.1-12.3,1.3-30.8,1.5-32.7
				c-0.7-1.1-5-8.5-8-19.2c-2.3-8.3-0.1-17,0-17.3c0.1-0.3,0.3-0.4,0.6-0.4c0.3,0.1,0.4,0.3,0.4,0.6c0,0.1-2.2,8.7,0,16.8
				c3.2,11.5,8,19,8,19.1c0.1,0.1,0.1,0.2,0.1,0.3c0,0.2-1.4,20-1.5,32.8c-0.1,13.1,0.7,42.8,0.7,43.1
				C26.9,146,26.7,146.2,26.4,146.2C26.4,146.2,26.4,146.2,26.4,146.2z"/>
		</g>
		<g id="XMLID_123_">
			<path fill="#252222" d="M44,146.2C44,146.2,44,146.2,44,146.2c-0.3,0-0.5-0.2-0.5-0.5c0-0.3,0.8-29.9,0.7-43.1
				c-0.1-12.9-1.5-32.6-1.5-32.8c0-0.1,0-0.2,0.1-0.3c0-0.1,4.8-7.6,8-19.1c2.2-8.1,0-16.7,0-16.8c-0.1-0.3,0.1-0.5,0.4-0.6
				c0.3-0.1,0.5,0.1,0.6,0.4c0.1,0.4,2.3,9,0,17.3c-3,10.8-7.4,18.1-8,19.2c0.1,1.9,1.4,20.4,1.5,32.7c0.1,13.1-0.7,42.8-0.7,43.1
				C44.5,146,44.3,146.2,44,146.2z"/>
		</g>
	</g>
</g>
</svg>
