<?xml version="1.0" encoding="utf-8"?>
<!-- Generator: Adobe Illustrator 18.1.0, SVG Export Plug-In . SVG Version: 6.00 Build 0)  -->
<!DOCTYPE svg PUBLIC "-//W3C//DTD SVG 1.1//EN" "http://www.w3.org/Graphics/SVG/1.1/DTD/svg11.dtd">
<svg version="1.1" xmlns="http://www.w3.org/2000/svg" xmlns:xlink="http://www.w3.org/1999/xlink" x="0px" y="0px"
	 viewBox="0 0 62 59.4" enable-background="new 0 0 62 59.4" xml:space="preserve">
<g id="Слой_6" display="none">
	<rect id="XMLID_2_" x="-217.3" y="-123.9" display="inline" fill="#4891C2" width="1220.5" height="801.9"/>
</g>
<g id="Слой_5">
</g>
<g id="Слой_4">
	<g>
		<g id="XMLID_15_">
			<path fill="#2A2727" d="M0.8,13.5c0,0-0.6,0.7,0,3.7s2.5,9.1,3.7,14.3c1.4,6.1,1.1,27.4,1.1,27.4h2.1c0,0,0.3-22.6,0.5-25.6
				c0.3-4.7,2.5-10.9,2.5-10.9L0.8,13.5z"/>
			<path fill="#252222" d="M8.2,59.4H5.1l0-0.5c0-0.2,0.3-21.3-1.1-27.3c-0.6-2.6-1.4-5.4-2.1-7.9c-0.7-2.6-1.3-4.9-1.7-6.4
				c-0.6-3-0.1-4,0.1-4.2l0.3-0.4l10.5,9.5l-0.1,0.3c0,0.1-2.1,6.2-2.4,10.8c-0.2,3-0.5,25.3-0.5,25.6L8.2,59.4z M6.1,58.4h1.1
				c0-3.4,0.3-22.3,0.5-25.1c0.3-4.1,1.9-9.4,2.4-10.7l-9-8.2c-0.1,0.5,0,1.4,0.2,2.7c0.3,1.5,0.9,3.7,1.6,6.3
				C3.6,26,4.4,28.8,5,31.4C6.3,37,6.1,55,6.1,58.4z"/>
		</g>
		<g id="XMLID_17_">
			<path fill="#2A2727" d="M25.4,47c0,0,1.2,5.1,1.4,6.3c0.7,3.4,1.9,5.1,3.9,5.2c5.1,0.4,16.2-1,18.2-1.3c2.8-0.4,8.2-2.6,8.9-3.3
				c1.8-1.8,3.6-9.5,3.5-10.4c-0.1-1-4.2,0.5-4.2,0.5L25.4,47z"/>
			<path fill="#252222" d="M32.9,59.2C32.9,59.2,32.9,59.2,32.9,59.2c-0.8,0-1.5,0-2.1-0.1c-2.9-0.2-3.9-3.1-4.4-5.6
				c-0.3-1.2-1.4-6.3-1.4-6.3l-0.1-0.6l32.3-3c0.4-0.1,2.5-0.9,3.7-0.9c1,0,1.1,0.5,1.2,0.8c0.1,1.2-1.8,8.9-3.7,10.8
				c-0.8,0.8-6.4,3.1-9.2,3.5C47.4,58,38.6,59.2,32.9,59.2z M26.1,47.5c0.3,1.4,1.1,4.8,1.3,5.8c0.7,3.3,1.7,4.7,3.5,4.8
				c0.6,0,1.3,0.1,2.1,0.1c5.7,0,15-1.2,16-1.4c2.9-0.4,8.1-2.6,8.6-3.2c1.6-1.6,3.3-8.5,3.4-9.9c0,0-0.1,0-0.2,0
				c-0.9,0-2.8,0.6-3.4,0.8l-0.1,0L26.1,47.5z"/>
		</g>
		<g id="XMLID_14_">
			<path fill="#D14D57" d="M8.1,0.5c-0.7,0.3-6.4,7-7.1,10.6s1,5.8,6.3,10.5c7.7,6.8,12.1,13.8,14.5,17.7c5.6,9,3.1,14.1,11,12.9
				C48.5,49.7,57.2,44,57.2,44s-0.2-2.2-0.7-3.8c-1-3.3-1.2-4.3-4.3-4.1c-3.3,0.2-4.5-2.1-5.7-1.9c-1.2,0.2-2.7,0.9-5.9,1.3
				c-9,1.3-17.4-16.5-18.8-19.1C20.3,14,10.7-0.4,8.1,0.5z"/>
			<path fill="#252222" d="M30.7,52.8c-3.7,0-4.5-2.2-5.8-5.6c-0.8-2.1-1.7-4.7-3.6-7.7C18.9,35.8,14.5,28.8,6.9,22
				C1.8,17.4-0.4,15,0.4,11c0.8-3.7,6.5-10.6,7.5-11C8,0,8.2,0,8.4,0C12,0,22.1,16.2,22.2,16.3c0.1,0.3,0.4,0.7,0.6,1.2
				c2.3,4.4,9.4,17.7,16.8,17.7c0.3,0,0.6,0,0.9-0.1c2.1-0.3,3.4-0.7,4.4-1c0.5-0.2,1-0.3,1.5-0.4c0.7-0.1,1.3,0.3,2,0.7
				c0.9,0.6,2,1.3,3.8,1.2c0.3,0,0.6,0,0.8,0c2.7,0,3.1,1.3,3.9,4.2l0.1,0.3c0.5,1.6,0.7,3.8,0.7,3.9l0,0.3l-0.3,0.2
				c-0.1,0.1-9,5.8-24.7,8.2C32,52.8,31.3,52.8,30.7,52.8z M8.4,1C8.3,1,8.3,1,8.4,1C7.5,1.4,2.1,7.9,1.4,11.2
				c-0.7,3.3,0.8,5.3,6.1,10c7.8,6.9,12.2,14,14.6,17.8c2,3.1,2.9,5.8,3.7,7.9c1.2,3.4,1.8,4.9,4.8,4.9c0.6,0,1.2-0.1,2-0.2
				c14-2.2,22.5-7,24.1-7.9c-0.1-0.6-0.3-2.2-0.6-3.4L56,40.1c-0.9-2.9-1.1-3.4-3-3.4c-0.2,0-0.5,0-0.7,0c-2.1,0.1-3.5-0.7-4.4-1.3
				c-0.5-0.3-0.9-0.6-1.2-0.6c-0.5,0.1-0.9,0.2-1.5,0.4c-1,0.3-2.4,0.7-4.6,1c-0.3,0-0.7,0.1-1,0.1c-8.1,0-15.3-13.8-17.7-18.3
				c-0.3-0.5-0.5-0.9-0.6-1.1C19.5,13.5,10.8,1,8.4,1z"/>
		</g>
	</g>
</g>
<g id="Слой_2">
</g>
<g id="Слой_7" display="none">
</g>
<g id="Слой_8">
</g>
</svg>
