<?xml version="1.0" encoding="utf-8"?>
<!-- Generator: Adobe Illustrator 18.1.0, SVG Export Plug-In . SVG Version: 6.00 Build 0)  -->
<!DOCTYPE svg PUBLIC "-//W3C//DTD SVG 1.1//EN" "http://www.w3.org/Graphics/SVG/1.1/DTD/svg11.dtd">
<svg version="1.1" xmlns="http://www.w3.org/2000/svg" xmlns:xlink="http://www.w3.org/1999/xlink" x="0px" y="0px"
	 viewBox="0 0 74.4 86.2" enable-background="new 0 0 74.4 86.2" xml:space="preserve">
<g id="Слой_6" display="none">
	<rect id="XMLID_2_" x="-694.9" y="-110.7" display="inline" fill="#4891C2" width="1220.5" height="801.9"/>
</g>
<g id="Слой_5">
</g>
<g id="Слой_4">
</g>
<g id="Слой_2">
</g>
<g id="Слой_7" display="none">
</g>
<g id="Слой_8">
	<g id="XMLID_167_">
		<g id="XMLID_146_">
			<path id="XMLID_164_" fill="#B1A186" d="M53.2,26.3V13.5c0-0.2-0.2-4.4-2.1-6.3c-3.3-3.3-5.6-3.6-7.9-3.6s-4.6,0.3-7.9,3.6
				c-1.9,1.9-2.1,6.1-2.1,6.3v12.8h-4.6V14.2c0-0.1,0-6.3,3.7-9.4c4.1-3.5,7.8-3.5,10.5-3.5h0.9c2.7,0,6.4,0,10.5,3.5
				c3.7,3.1,3.7,9.3,3.7,9.4v12.1H53.2z"/>
			<g id="XMLID_160_">
				<path id="XMLID_161_" fill="#252222" d="M43.6,1.8c2.6,0,6.2,0,10.2,3.4c3.5,3,3.5,9,3.5,9v11.6h-3.6l0-12.3
					c0-0.5-0.2-4.6-2.3-6.6c-3.4-3.4-5.9-3.7-8.3-3.7c-2.4,0-4.9,0.3-8.3,3.7c-2,2-2.3,6.2-2.3,6.7v12.2H29V14.2c0-0.1,0-6,3.5-9
					c4-3.4,7.6-3.4,10.2-3.4l0.2,0l0.2,0l0.2,0L43.6,1.8 M43.6,0.8c-0.1,0-0.3,0-0.4,0c-0.1,0-0.3,0-0.4,0c-2.9,0-6.6,0.1-10.8,3.6
					C28,7.8,28,14.2,28,14.2v12.6h5.6V13.5c0,0,0.2-4.2,2-6c3.3-3.3,5.5-3.4,7.6-3.4c2,0,4.3,0.1,7.6,3.4c1.8,1.8,2,6,2,6v13.2h5.6
					V14.2c0,0,0-6.5-3.9-9.8C50.2,0.9,46.5,0.8,43.6,0.8L43.6,0.8z"/>
			</g>
		</g>
		<g id="XMLID_151_">
			<path id="XMLID_159_" fill="#DED6C1" d="M11.5,85.7c-2.8,0-5.3-1.8-6.1-4.5L3,73.8c-1.7-5.2-2.5-10.6-2.5-16.1V20.5
				c0-0.7,0.6-1.3,1.3-1.3h70.8c0.7,0,1.3,0.6,1.3,1.3v37.2c0,5.5-0.8,10.9-2.5,16.1L69,81.2c-0.9,2.7-3.3,4.5-6.1,4.5H11.5z"/>
			<g id="XMLID_59_">
				<path id="XMLID_153_" fill="#252222" d="M72.6,19.7c0.5,0,0.8,0.4,0.8,0.8v37.2c0,5.4-0.8,10.8-2.5,15.9l-2.4,7.4
					c-0.8,2.5-3.1,4.1-5.6,4.1H37.2H11.5c-2.6,0-4.9-1.7-5.6-4.1l-2.4-7.4C1.8,68.5,1,63.1,1,57.7V20.5c0-0.5,0.4-0.8,0.8-0.8h35.4
					H72.6 M72.6,18.7H37.2H1.8c-1,0-1.8,0.8-1.8,1.8v37.2c0,5.5,0.9,11,2.6,16.2l2.4,7.4c0.9,2.9,3.6,4.8,6.6,4.8h25.7h25.7
					c3,0,5.7-1.9,6.6-4.8l2.4-7.4c1.7-5.2,2.6-10.7,2.6-16.2V20.5C74.4,19.5,73.6,18.7,72.6,18.7L72.6,18.7z"/>
			</g>
		</g>
		<g id="XMLID_152_">
			<path id="XMLID_55_" fill="#DED6C1" d="M46.7,25.5V12.7c0-0.2-0.2-4.4-2.1-6.3c-3.3-3.3-5.6-3.6-7.9-3.6S32,3.1,28.7,6.4
				c-1.9,1.9-2.1,6.1-2.1,6.3v12.8H22V13.4c0-0.1,0-6.3,3.7-9.4c4.1-3.5,7.8-3.5,10.5-3.5h0.9c2.7,0,6.4,0,10.5,3.5
				c3.7,3.1,3.7,9.3,3.7,9.4v12.1H46.7z"/>
			<g id="XMLID_51_">
				<path id="XMLID_52_" fill="#252222" d="M37.1,1c2.6,0,6.2,0,10.2,3.4c3.5,3,3.5,9,3.5,9V25h-3.6l0-12.3c0-0.5-0.2-4.6-2.3-6.6
					c-3.4-3.4-5.9-3.7-8.3-3.7c-2.4,0-4.9,0.3-8.3,3.7c-2,2-2.3,6.2-2.3,6.7V25h-3.6V13.4c0-0.1,0.1-6.1,3.5-9C30,1,33.6,1,36.2,1
					l0.2,0l0.2,0l0.2,0L37.1,1 M37.1,0c-0.1,0-0.3,0-0.4,0c-0.1,0-0.3,0-0.4,0c-2.9,0-6.6,0.1-10.8,3.6c-3.9,3.3-3.9,9.8-3.9,9.8V26
					h5.6V12.7c0,0,0.2-4.2,2-6c3.3-3.3,5.5-3.4,7.6-3.4c2,0,4.3,0.1,7.6,3.4c1.8,1.8,2,6,2,6V26h5.6V13.4c0,0,0-6.5-3.9-9.8
					C43.7,0.1,39.9,0,37.1,0L37.1,0z"/>
			</g>
		</g>
	</g>
</g>
</svg>
