<?xml version="1.0" encoding="utf-8"?>
<!-- Generator: Adobe Illustrator 18.1.0, SVG Export Plug-In . SVG Version: 6.00 Build 0)  -->
<!DOCTYPE svg PUBLIC "-//W3C//DTD SVG 1.1//EN" "http://www.w3.org/Graphics/SVG/1.1/DTD/svg11.dtd">
<svg version="1.1" xmlns="http://www.w3.org/2000/svg" xmlns:xlink="http://www.w3.org/1999/xlink" x="0px" y="0px"
	 viewBox="0 0 125.3 118.4" enable-background="new 0 0 125.3 118.4" xml:space="preserve">
<g id="Слой_6" display="none">
	<rect id="XMLID_2_" x="-1062.8" y="-105.7" display="inline" fill="#4891C2" width="1220.5" height="801.9"/>
</g>
<g id="Слой_5">
</g>
<g id="Слой_4">
</g>
<g id="Слой_2">
</g>
<g id="Слой_7" display="none">
</g>
<g id="Слой_8">
	<g id="XMLID_233_">
		<g id="XMLID_113_">
			<path fill="#C5D784" d="M62.7,117.9h31.1V39.6l14.4,13c0.7,0.6,1.8,0.6,2.4-0.1L124.3,38c0.7-0.7,0.6-1.8-0.1-2.5L101,14.2
				c-4-3.7-9.2-5.7-14.6-5.7H65H39c-5.4,0-10.6,2-14.6,5.7L1.1,35.5C0.3,36.2,0.3,37.3,1,38l13.8,14.5c0.6,0.7,1.7,0.7,2.4,0.1
				l14.4-13v78.3H62.7"/>
			<path fill="#252222" d="M93.7,118.4H31.6c-0.3,0-0.5-0.2-0.5-0.5V40.7L17.5,52.9c-0.9,0.8-2.3,0.7-3.1-0.1L0.6,38.4
				c-0.4-0.4-0.6-1-0.6-1.6c0-0.6,0.3-1.2,0.7-1.6L24,13.9C28.1,10.1,33.4,8,39,8h47.4c5.6,0,10.9,2.1,15,5.8l23.3,21.3
				c0.5,0.4,0.7,1,0.7,1.6c0,0.6-0.2,1.2-0.6,1.6l-13.8,14.5c-0.8,0.8-2.2,0.9-3.1,0.1L94.2,40.7v77.2
				C94.2,118.2,94,118.4,93.7,118.4z M32.1,117.4h61.1V39.6c0-0.2,0.1-0.4,0.3-0.5c0.2-0.1,0.4,0,0.5,0.1l14.4,13
				c0.5,0.4,1.3,0.4,1.7-0.1L124,37.7c0.2-0.2,0.4-0.6,0.3-0.9s-0.2-0.7-0.4-0.9l-23.3-21.3C96.7,11,91.6,9,86.3,9H39
				c-5.3,0-10.4,2-14.3,5.6L1.4,35.9C1.2,36.1,1,36.4,1,36.8c0,0.3,0.1,0.7,0.3,0.9l13.8,14.5c0.4,0.5,1.2,0.5,1.7,0.1l14.4-13
				c0.1-0.1,0.4-0.2,0.5-0.1c0.2,0.1,0.3,0.3,0.3,0.5V117.4z"/>
		</g>
		<g id="XMLID_133_">
			<path fill="#A4AE67" d="M51.8,1.7c3.8-1.1,5.8-1.1,7.8-1c2.1,0,4.4,0,8.2,1l6.9,6.8l-15.1,8L44.8,8.6L51.8,1.7z"/>
			<path fill="#252222" d="M59.6,17c-0.1,0-0.2,0-0.2-0.1L44.6,9.1c-0.1-0.1-0.2-0.2-0.3-0.4c0-0.2,0-0.3,0.1-0.4l7-6.9
				c0.1-0.1,0.1-0.1,0.2-0.1c3.4-1,5.5-1.1,7.3-1.1l1,0c2.1,0,4.4,0,8,1.1c0.1,0,0.2,0.1,0.2,0.1l6.9,6.8c0.1,0.1,0.2,0.3,0.1,0.4
				c0,0.2-0.1,0.3-0.3,0.4l-15.1,8C59.8,17,59.7,17,59.6,17z M45.7,8.5L59.6,16l14.3-7.6l-6.3-6.3c-3.5-1-5.7-1-7.6-1l-1,0
				c-1.8,0-3.7,0.1-6.9,1L45.7,8.5z"/>
		</g>
		<g id="XMLID_125_">
			<path fill="#C5D784" d="M51.8,1.7c-2.2,0.6-4.3,1.7-5.5,3.5c-1.5,2.2-2.6,5.2,0.7,10.1c2,3.1,6.7,7.5,6.7,7.5l6.3-6.2
				c0,0-6.6-5.7-7.8-7.4C48.6,4.1,51.8,1.7,51.8,1.7z"/>
			<path fill="#252222" d="M53.7,23.3c-0.1,0-0.2,0-0.3-0.1c-0.2-0.2-4.8-4.5-6.8-7.6c-3.5-5.3-2.2-8.5-0.7-10.7
				C47.1,3.2,49,2,51.7,1.2c0.2-0.1,0.5,0,0.6,0.3c0.1,0.2,0,0.5-0.1,0.6c-0.1,0.1-2.7,2.2,0.5,6.8c1.1,1.6,7.7,7.3,7.7,7.3
				c0.1,0.1,0.2,0.2,0.2,0.4c0,0.1,0,0.3-0.1,0.4l-6.3,6.2C54,23.2,53.8,23.3,53.7,23.3z M50.5,2.7c-1.7,0.7-2.9,1.6-3.7,2.8
				c-1.4,2-2.4,4.8,0.7,9.6c1.6,2.5,5.2,6,6.3,7.1l5.6-5.5c-1.5-1.3-6.5-5.7-7.5-7.1C49.6,6.2,49.8,4,50.5,2.7z"/>
		</g>
		<g id="XMLID_126_">
			<path fill="#C5D784" d="M67.8,1.7c2.2,0.6,4.3,1.7,5.5,3.5c1.5,2.2,2.6,5.2-0.7,10.1c-2,3.1-6.7,7.5-6.7,7.5l-6.3-6.2
				c0,0,6.6-5.7,7.8-7.4C71,4.1,67.8,1.7,67.8,1.7z"/>
			<path fill="#252222" d="M65.9,23.3c-0.1,0-0.3,0-0.4-0.1l-6.3-6.2c-0.1-0.1-0.2-0.2-0.1-0.4c0-0.1,0.1-0.3,0.2-0.4
				c0.1-0.1,6.6-5.7,7.7-7.3c3.3-4.6,0.5-6.7,0.5-6.8c-0.2-0.1-0.3-0.4-0.1-0.6c0.1-0.2,0.4-0.3,0.6-0.3c2.7,0.8,4.6,2,5.8,3.7
				c1.5,2.2,2.8,5.4-0.7,10.7c-2,3.1-6.6,7.4-6.8,7.6C66.2,23.2,66.1,23.3,65.9,23.3z M60.4,16.6l5.6,5.5c1.1-1.1,4.7-4.5,6.3-7.1
				c3.1-4.8,2.1-7.5,0.7-9.6c-0.8-1.1-2.1-2.1-3.7-2.8c0.6,1.3,0.9,3.6-1.3,6.8C66.8,10.9,61.8,15.3,60.4,16.6z"/>
		</g>
		<g id="XMLID_124_">
			<path fill="#252222" d="M56.3,118.4c-0.3,0-0.5-0.2-0.5-0.5V20.2c0-0.3,0.2-0.5,0.5-0.5s0.5,0.2,0.5,0.5v97.7
				C56.8,118.2,56.6,118.4,56.3,118.4z"/>
		</g>
		<g id="XMLID_111_">
			<path fill="#252222" d="M63.4,118.4c-0.3,0-0.5-0.2-0.5-0.5V20.2c0-0.3,0.2-0.5,0.5-0.5s0.5,0.2,0.5,0.5v97.7
				C63.9,118.2,63.7,118.4,63.4,118.4z"/>
		</g>
		<g id="XMLID_128_">
			<circle fill="#A4AE67" cx="59.6" cy="26.3" r="0.9"/>
			<path fill="#252222" d="M59.6,27.7c-0.8,0-1.4-0.6-1.4-1.4s0.6-1.4,1.4-1.4s1.4,0.6,1.4,1.4S60.4,27.7,59.6,27.7z M59.6,25.9
				c-0.2,0-0.4,0.2-0.4,0.4s0.2,0.4,0.4,0.4s0.4-0.2,0.4-0.4S59.8,25.9,59.6,25.9z"/>
		</g>
		<g id="XMLID_129_">
			<circle fill="#A4AE67" cx="59.6" cy="46.1" r="0.9"/>
			<path fill="#252222" d="M59.6,47.5c-0.8,0-1.4-0.6-1.4-1.4s0.6-1.4,1.4-1.4s1.4,0.6,1.4,1.4S60.4,47.5,59.6,47.5z M59.6,45.7
				c-0.2,0-0.4,0.2-0.4,0.4s0.2,0.4,0.4,0.4s0.4-0.2,0.4-0.4S59.8,45.7,59.6,45.7z"/>
		</g>
		<g id="XMLID_130_">
			<circle fill="#A4AE67" cx="59.6" cy="65.9" r="0.9"/>
			<path fill="#252222" d="M59.6,67.2c-0.8,0-1.4-0.6-1.4-1.4s0.6-1.4,1.4-1.4s1.4,0.6,1.4,1.4S60.4,67.2,59.6,67.2z M59.6,65.5
				c-0.2,0-0.4,0.2-0.4,0.4s0.2,0.4,0.4,0.4s0.4-0.2,0.4-0.4S59.8,65.5,59.6,65.5z"/>
		</g>
		<g id="XMLID_132_">
			<circle fill="#A4AE67" cx="59.6" cy="85.7" r="0.9"/>
			<path fill="#252222" d="M59.6,87c-0.8,0-1.4-0.6-1.4-1.4s0.6-1.4,1.4-1.4s1.4,0.6,1.4,1.4S60.4,87,59.6,87z M59.6,85.3
				c-0.2,0-0.4,0.2-0.4,0.4s0.2,0.4,0.4,0.4s0.4-0.2,0.4-0.4S59.8,85.3,59.6,85.3z"/>
		</g>
		<g id="XMLID_131_">
			<circle fill="#A4AE67" cx="59.6" cy="105.4" r="0.9"/>
			<path fill="#252222" d="M59.6,106.8c-0.8,0-1.4-0.6-1.4-1.4s0.6-1.4,1.4-1.4s1.4,0.6,1.4,1.4S60.4,106.8,59.6,106.8z M59.6,105.1
				c-0.2,0-0.4,0.2-0.4,0.4s0.2,0.4,0.4,0.4s0.4-0.2,0.4-0.4S59.8,105.1,59.6,105.1z"/>
		</g>
	</g>
</g>
</svg>
