<?xml version="1.0" encoding="utf-8"?>
<!-- Generator: Adobe Illustrator 18.1.0, SVG Export Plug-In . SVG Version: 6.00 Build 0)  -->
<!DOCTYPE svg PUBLIC "-//W3C//DTD SVG 1.1//EN" "http://www.w3.org/Graphics/SVG/1.1/DTD/svg11.dtd">
<svg version="1.1" xmlns="http://www.w3.org/2000/svg" xmlns:xlink="http://www.w3.org/1999/xlink" x="0px" y="0px"
	 viewBox="0 0 75.9 161.4" enable-background="new 0 0 75.9 161.4" xml:space="preserve">
<g id="Слой_6" display="none">
	<rect id="XMLID_2_" x="-820.7" y="-83.3" display="inline" fill="#4891C2" width="1220.5" height="801.9"/>
</g>
<g id="Слой_5">
</g>
<g id="Слой_4">
</g>
<g id="Слой_2">
</g>
<g id="Слой_7" display="none">
</g>
<g id="Слой_8">
	<g id="XMLID_169_">
		<g id="XMLID_142_">
			<polygon fill="#96999F" points="68.1,0.5 38,0.5 7.8,0.5 0.5,160.9 28.3,160.9 38,28 47.6,160.9 75.4,160.9 			"/>
			<path fill="#252222" d="M75.9,161.4H47.1l0-0.5L38,35l-9.2,126.5H0l0-0.5L7.3,0h61.3L75.9,161.4z M48,160.4h26.8L67.6,1H8.3
				L1,160.4h26.8L37.5,28h1L48,160.4z"/>
		</g>
		<g id="XMLID_135_">
			<rect x="7.5" y="6.4" fill="#252222" width="30.4" height="1"/>
		</g>
		<g id="XMLID_134_">
			<path fill="#252222" d="M7.1,20.1l-0.2-1c0.1,0,6.5-1.2,8.7-2.7c6.6-4.4,6.6-9.5,6.6-9.5h1c0,0.2-0.1,5.7-7.1,10.3
				C13.8,18.8,7.4,20.1,7.1,20.1z"/>
		</g>
		<g id="XMLID_136_">
			<path fill="#252222" d="M19.2,7.4h-3V0h3V7.4z M17.2,6.4h1V1h-1V6.4z"/>
		</g>
		<g id="XMLID_139_">
			<rect x="38" y="6.4" fill="#252222" width="30.4" height="1"/>
		</g>
		<g id="XMLID_138_">
			<path fill="#252222" d="M68.8,20.1c-0.3-0.1-6.7-1.3-9.1-2.9c-7-4.7-7.1-10.1-7.1-10.3l1,0c0,0.1,0.1,5.2,6.6,9.5
				c2.2,1.5,8.6,2.7,8.7,2.7L68.8,20.1z"/>
		</g>
		<g id="XMLID_137_">
			<path fill="#252222" d="M59.7,7.4h-3V0h3V7.4z M57.7,6.4h1V1h-1V6.4z"/>
		</g>
		<g id="XMLID_114_">
			<path fill="#252222" d="M38,28.5h-2c-0.3,0-0.5-0.2-0.5-0.5s0.2-0.5,0.5-0.5h2c0.3,0,0.5,0.2,0.5,0.5S38.2,28.5,38,28.5z
				 M33.6,27.3c-0.2,0-0.3-0.1-0.4-0.2c-0.4-0.5-0.6-1.2-0.6-1.9v-0.3c0-0.3,0.2-0.5,0.5-0.5s0.5,0.2,0.5,0.5v0.3
				c0,0.5,0.1,0.9,0.4,1.3c0.2,0.2,0.1,0.5-0.1,0.7C33.8,27.3,33.7,27.3,33.6,27.3z M33.1,22.6c-0.3,0-0.5-0.2-0.5-0.5v-2
				c0-0.3,0.2-0.5,0.5-0.5s0.5,0.2,0.5,0.5v2C33.6,22.4,33.4,22.6,33.1,22.6z M33.1,17.8c-0.3,0-0.5-0.2-0.5-0.5v-2
				c0-0.3,0.2-0.5,0.5-0.5s0.5,0.2,0.5,0.5v2C33.6,17.5,33.4,17.8,33.1,17.8z M33.1,12.9c-0.3,0-0.5-0.2-0.5-0.5v-2
				c0-0.3,0.2-0.5,0.5-0.5s0.5,0.2,0.5,0.5v2C33.6,12.7,33.4,12.9,33.1,12.9z M33.1,8.1c-0.3,0-0.5-0.2-0.5-0.5V6.9
				c0-0.3,0.2-0.5,0.5-0.5s0.5,0.2,0.5,0.5v0.7C33.6,7.9,33.4,8.1,33.1,8.1z"/>
		</g>
		<g id="XMLID_141_">
			<rect x="39.2" y="0.5" fill="#252222" width="1" height="6.4"/>
		</g>
	</g>
</g>
</svg>
