<?xml version="1.0" encoding="utf-8"?>
<!-- Generator: Adobe Illustrator 18.1.0, SVG Export Plug-In . SVG Version: 6.00 Build 0)  -->
<!DOCTYPE svg PUBLIC "-//W3C//DTD SVG 1.1//EN" "http://www.w3.org/Graphics/SVG/1.1/DTD/svg11.dtd">
<svg version="1.1" xmlns="http://www.w3.org/2000/svg" xmlns:xlink="http://www.w3.org/1999/xlink" x="0px" y="0px"
	 viewBox="0 0 100.6 55.9" enable-background="new 0 0 100.6 55.9" xml:space="preserve">
<g id="Слой_6" display="none">
	<rect id="XMLID_2_" x="-320.3" y="-127.8" display="inline" fill="#4891C2" width="1220.5" height="801.9"/>
</g>
<g id="Слой_5">
	<g>
		<g id="XMLID_41_">
			<path fill="#2A2727" d="M2.6,43.3c0,0-1.2,0.2-1.6,0.7c-0.4,0.5-0.5,1.3-0.5,1.3V53c0,0,0,0.6,0.2,1c0.3,0.5,0.7,0.5,0.7,0.5
				s4.7,0.5,13.3,0.8C23,55.6,28.9,55,28.9,55v-3.8c0,0,4.3-0.2,10.9,0.9s19.1,2.4,23,2.4c13.3,0,24.4-3.2,27.7-4.4
				c6.1-2.4,9.6-4.8,9.6-4.8s-0.1-1.3-1.2-2.7c-0.3-0.4-0.9,0-0.9,0"/>
			<path fill="#252222" d="M19,55.9c-1.4,0-2.8,0-4.4-0.1C6.2,55.5,1.4,55,1.4,55c-0.1,0-0.6-0.1-1.1-0.7C0,53.8,0,53.1,0,53v-7.7
				c0-0.1,0.1-1,0.6-1.6c0.5-0.6,1.8-0.8,1.9-0.9l0.2,1c-0.4,0.1-1.1,0.3-1.3,0.5c-0.3,0.4-0.4,1-0.4,1L1,53c0,0.2,0,0.6,0.1,0.7
				C1.3,54,1.5,54,1.5,54l0,0c0,0,4.7,0.5,13.2,0.8c6.8,0.2,12.1-0.2,13.7-0.3v-3.8l0.5,0c0.2,0,4.5-0.1,11,1
				c6.3,1.1,19,2.4,22.9,2.4c13.3,0,24.4-3.2,27.5-4.4c5-2,8.3-4,9.2-4.6c-0.1-0.4-0.4-1.3-1.1-2.2c0,0-0.2,0.1-0.3,0.1l-0.5-0.8
				c0.5-0.3,1.2-0.4,1.6,0.1c1.2,1.5,1.3,2.9,1.3,3l0,0.3l-0.2,0.2c-0.1,0.1-3.6,2.5-9.7,4.8C87.5,51.8,76.3,55,62.8,55
				c-4,0-16.7-1.3-23.1-2.4c-5.2-0.9-9-1-10.3-0.9v3.8l-0.5,0C28.9,55.5,24.9,55.9,19,55.9z"/>
		</g>
		<g id="XMLID_20_">
			<path fill="#6B4F39" d="M2.3,42.9C1.7,41.4,2,36.5,2.8,31.8C3.6,27,5.5,20.4,5.7,18.3C5.8,16.3,4.6,3.4,4.6,3.4S3.7,1.7,14.9,0.7
				c7.4-0.6,23.2,0.2,26.1,3.7c1.5,1.8,1.8,8.9,5.9,13.9c6.7,8,14.2,12,14.9,12.6c0.7,0.6,1,2.4,1,2.4s5,3.8,12.5,4.3
				c7.5,0.5,17-1.2,19.5-0.2c4.3,1.6,3.9,5.3,2.5,6.1c-4.2,2.4-16.9,6.4-36.5,6.4c-16.6,0-25.5-3.8-31.1-3.7
				C4.6,46.6,3.4,45.4,2.3,42.9z"/>
			<path fill="#252222" d="M60.8,50.3L60.8,50.3c-10.4,0-17.8-1.5-23.2-2.6c-3.1-0.6-5.6-1.1-7.6-1.1l-0.2,0
				c-3.3,0.1-6.2,0.1-8.7,0.1c-16.8,0-18.1-1.2-19.1-3.6C1.1,41.4,1.6,36,2.3,31.7c0.4-2.3,1-5,1.6-7.3c0.6-2.6,1.2-5,1.2-6
				c0.1-1.9-1-13.9-1.1-14.8c0-0.2,0-0.4,0.1-0.7c0.7-1.2,4.3-2.1,10.7-2.7C16.4,0.1,18.2,0,20.2,0c6.6,0,18.6,0.9,21.2,4.1
				c0.6,0.7,1,2.2,1.5,4c0.8,2.9,1.9,6.9,4.4,9.9c5.6,6.7,11.6,10.5,13.9,11.9c0.5,0.3,0.8,0.5,0.9,0.6c0.7,0.6,1,1.9,1.1,2.5
				c0.9,0.6,5.5,3.7,12.1,4.1c0.9,0.1,1.9,0.1,3,0.1c2.8,0,5.7-0.2,8.2-0.4c2.1-0.1,4-0.3,5.6-0.3c1.4,0,2.3,0.1,2.9,0.3
				c3.2,1.2,3.7,3.3,3.8,4.2c0.1,1.2-0.4,2.3-1.2,2.8C93.6,46.1,80.8,50.3,60.8,50.3z M29.9,45.6c2.1,0,4.6,0.5,7.8,1.1
				c5.4,1.1,12.7,2.5,23,2.5l0,0.5v-0.5c19.8,0,32.4-4.2,36.3-6.3c0.4-0.2,0.8-0.9,0.7-1.8c-0.1-0.7-0.5-2.3-3.1-3.3
				c-0.5-0.2-1.3-0.3-2.5-0.3c-1.5,0-3.4,0.1-5.5,0.3c-2.6,0.2-5.5,0.4-8.3,0.4c-1.1,0-2.1,0-3.1-0.1c-7.6-0.5-12.6-4.2-12.8-4.4
				l-0.2-0.1l0-0.2c-0.1-0.6-0.4-1.7-0.8-2.1c-0.1-0.1-0.4-0.3-0.8-0.5c-2.3-1.5-8.5-5.3-14.1-12.1c-2.7-3.2-3.8-7.3-4.6-10.3
				c-0.5-1.6-0.8-3.1-1.3-3.6C38.6,2.2,28.6,1,20.2,1c-2,0-3.8,0.1-5.2,0.2C6.3,1.9,5.2,3.1,5.1,3.3l0,0c0,0.5,1.2,12.9,1.1,15
				c-0.1,1.1-0.6,3.5-1.3,6.2c-0.6,2.4-1.2,5-1.6,7.3c-0.9,4.9-1.1,9.6-0.5,10.8c0.8,1.8,1.3,3,18.2,3c2.5,0,5.4,0,8.7-0.1
				L29.9,45.6z"/>
		</g>
		<g id="XMLID_18_">
			<g id="XMLID_48_">
				<path fill="#6B4F39" d="M57.5,27.9c0.7,0.5,1.4,0.9,1.9,1.3"/>
				<path fill="#252222" d="M59.1,29.6c-0.6-0.4-1.2-0.8-1.9-1.3l0.6-0.8c0.7,0.5,1.3,0.9,1.9,1.3L59.1,29.6z"/>
			</g>
			<g id="XMLID_47_">
				<path fill="#6B4F39" d="M54,25.2c0.7,0.6,1.5,1.2,2.2,1.7"/>
				<path fill="#252222" d="M55.8,27.3c-0.7-0.5-1.4-1.1-2.2-1.7l0.6-0.8c0.7,0.6,1.5,1.2,2.1,1.7L55.8,27.3z"/>
			</g>
			<g id="XMLID_46_">
				<path fill="#6B4F39" d="M50.6,22.1c0.7,0.7,1.4,1.3,2.1,1.9"/>
				<path fill="#252222" d="M52.4,24.4c-0.7-0.6-1.4-1.3-2.1-1.9l0.7-0.7c0.7,0.6,1.3,1.3,2,1.9L52.4,24.4z"/>
			</g>
			<g id="XMLID_45_">
				<path fill="#6B4F39" d="M47.7,19c0.6,0.7,1.2,1.3,1.8,2"/>
				<path fill="#252222" d="M49.1,21.3c-0.6-0.6-1.2-1.3-1.8-2l0.8-0.7c0.6,0.7,1.2,1.3,1.8,1.9L49.1,21.3z"/>
			</g>
			<g id="XMLID_44_">
				<path fill="#6B4F39" d="M45.6,16.2c0.3,0.5,0.6,1,1,1.5"/>
				<path fill="#252222" d="M46.2,18c-0.4-0.5-0.7-1-1.1-1.6l0.9-0.5c0.3,0.5,0.6,1,1,1.5L46.2,18z"/>
			</g>
			<g id="XMLID_42_">
				<path fill="#252222" d="M31.1,46.1c0-0.2-0.4-4.4,2.6-7l0.2-0.1c2.9-2.5,5.7-4.9,15.8-3.4c7.7,1.1,10.7,1.8,11.7,2
					c0.2-0.4,0.5-1,0.7-1.5c0.4-1.3,0.2-3,0.2-3l1-0.1c0,0.1,0.1,1.8-0.3,3.3c-0.2,0.9-0.9,2-1,2.1l-0.2,0.3l-0.4-0.1
					c0,0-2.1-0.7-11.9-2.1c-9.6-1.4-12.1,0.7-15,3.2l-0.2,0.1c-2.6,2.2-2.3,6.1-2.3,6.1L31.1,46.1z"/>
			</g>
			<g id="XMLID_40_">
				<path fill="#806C5F" d="M56.6,29.3c-0.2,0.3-0.7,0.4-1.1,0.1l0,0c-0.4-0.2-0.5-0.7-0.3-1l1.1-1.8c0.2-0.3,0.7-0.4,1.1-0.1l0,0
					c0.4,0.2,0.6,0.7,0.3,1L56.6,29.3z"/>
				<path fill="#252222" d="M56,30.1c-0.3,0-0.5-0.1-0.8-0.2c-0.6-0.4-0.9-1.2-0.5-1.7l1.1-1.8c0.3-0.5,1.2-0.7,1.8-0.3
					c0.3,0.2,0.6,0.5,0.6,0.9c0.1,0.3,0,0.6-0.1,0.9L57,29.5C56.8,29.9,56.5,30.1,56,30.1z M56.9,26.8c-0.1,0-0.1,0-0.2,0.1
					l-1.1,1.8c0,0.1,0,0.2,0.2,0.3c0.1,0.1,0.3,0.1,0.4,0l1.1-1.8c0,0,0-0.1,0-0.1c0-0.1-0.1-0.2-0.2-0.2
					C57.1,26.8,57,26.8,56.9,26.8z"/>
			</g>
			<g id="XMLID_39_">
				<path fill="#806C5F" d="M60.4,31.3c-0.2,0.4-0.6,0.5-1,0.3l0,0c-0.4-0.2-0.7-0.6-0.5-1l0.8-2c0.2-0.4,0.6-0.5,1-0.3l0,0
					c0.4,0.2,0.7,0.6,0.5,1L60.4,31.3z"/>
				<path fill="#252222" d="M59.7,32.2c-0.2,0-0.4,0-0.6-0.1c-0.3-0.1-0.6-0.4-0.7-0.7c-0.2-0.3-0.2-0.7-0.1-1l0.8-2
					c0.3-0.6,1-0.9,1.7-0.6c0.7,0.3,1,1,0.8,1.6l-0.8,2C60.6,31.9,60.2,32.2,59.7,32.2z M60.3,28.7c-0.1,0-0.2,0-0.2,0.1l-0.8,2
					c0,0,0,0.1,0,0.1c0,0.1,0.1,0.1,0.2,0.2c0.2,0.1,0.4,0,0.4,0l0.8-2c0-0.1,0-0.2-0.2-0.3C60.4,28.7,60.4,28.7,60.3,28.7z"/>
			</g>
			<g id="XMLID_38_">
				<path fill="#806C5F" d="M53,26.4c-0.3,0.3-0.7,0.3-1.1,0l0,0c-0.4-0.3-0.4-0.8-0.2-1.1l1.4-1.6c0.3-0.3,0.7-0.3,1.1,0l0,0
					c0.4,0.3,0.4,0.8,0.2,1.1L53,26.4z"/>
				<path fill="#252222" d="M52.5,27.1c-0.3,0-0.7-0.1-0.9-0.4c-0.3-0.3-0.5-0.6-0.5-1c0-0.3,0.1-0.6,0.3-0.8l1.4-1.6
					c0.4-0.5,1.3-0.5,1.8,0c0.3,0.2,0.4,0.5,0.5,0.8c0.1,0.3,0,0.7-0.3,0.9l-1.4,1.6C53.1,26.9,52.8,27.1,52.5,27.1z M53.6,23.9
					c0,0-0.1,0-0.1,0L52,25.7c0,0.1,0.1,0.2,0.2,0.3c0.1,0.1,0.3,0.2,0.4,0.1l1.4-1.6c0,0,0-0.1,0-0.1c0-0.1-0.1-0.2-0.2-0.2
					C53.8,24,53.7,23.9,53.6,23.9z"/>
			</g>
			<g id="XMLID_37_">
				<path fill="#806C5F" d="M49.5,23.2c-0.3,0.3-0.8,0.2-1.1-0.1l0,0c-0.3-0.3-0.4-0.8-0.1-1.1l1.6-1.5c0.3-0.3,0.8-0.2,1.1,0.1l0,0
					c0.3,0.3,0.4,0.8,0.1,1.1L49.5,23.2z"/>
				<path fill="#252222" d="M49,23.9c-0.4,0-0.7-0.2-1-0.4c-0.5-0.5-0.5-1.3-0.1-1.8l1.6-1.5c0.5-0.4,1.3-0.4,1.8,0.1
					c0.2,0.2,0.4,0.6,0.4,0.9c0,0.4-0.1,0.7-0.3,0.9l-1.6,1.5C49.6,23.8,49.3,23.9,49,23.9z M50.3,20.9l-1.7,1.5
					c-0.1,0.1,0,0.2,0.1,0.4c0.1,0.1,0.3,0.2,0.4,0.1l1.6-1.5c0,0,0-0.1,0-0.1c0-0.1-0.1-0.2-0.1-0.3C50.5,20.9,50.4,20.9,50.3,20.9
					z"/>
			</g>
			<g id="XMLID_36_">
				<path fill="#806C5F" d="M46.4,20.2c-0.3,0.3-0.8,0.2-1.1-0.1l0,0c-0.3-0.3-0.4-0.8-0.1-1.1l1.6-1.5c0.3-0.3,0.8-0.2,1.1,0.1l0,0
					c0.3,0.3,0.4,0.8,0.1,1.1L46.4,20.2z"/>
				<path fill="#252222" d="M45.9,20.9c-0.4,0-0.7-0.2-1-0.5c-0.3-0.3-0.4-0.6-0.4-1c0-0.3,0.1-0.6,0.3-0.8l1.6-1.5
					c0.5-0.4,1.3-0.4,1.8,0.1c0.2,0.2,0.4,0.6,0.4,0.9c0,0.4-0.1,0.7-0.3,0.9l-1.6,1.5C46.5,20.8,46.2,20.9,45.9,20.9z M47.2,17.8
					l-1.7,1.5c0,0,0,0.1,0,0.1c0,0.1,0,0.2,0.1,0.3c0.1,0.1,0.3,0.2,0.4,0.1l1.6-1.5c0,0,0-0.1,0-0.1c0-0.1-0.1-0.2-0.1-0.3
					C47.4,17.9,47.3,17.8,47.2,17.8z"/>
			</g>
			<g id="XMLID_35_">
				<path fill="#806C5F" d="M44.2,17.2c-0.3,0.2-0.8,0.1-1.1-0.3l0,0c-0.3-0.4-0.3-0.9,0.1-1.1l1.7-1.3c0.3-0.2,0.8-0.1,1.1,0.3l0,0
					c0.3,0.4,0.3,0.9-0.1,1.1L44.2,17.2z"/>
				<path fill="#252222" d="M43.9,17.8c-0.4,0-0.8-0.2-1.1-0.6c-0.4-0.6-0.4-1.4,0.2-1.8l1.7-1.3c0.5-0.4,1.3-0.2,1.8,0.4
					c0.4,0.6,0.4,1.4-0.2,1.8l-1.7,1.3C44.3,17.7,44.1,17.8,43.9,17.8z M45.3,14.9l-1.8,1.3c-0.1,0-0.1,0.2,0,0.4
					c0.2,0.2,0.3,0.2,0.4,0.2l1.7-1.3c0.1,0,0.1-0.2,0-0.4C45.5,14.9,45.4,14.9,45.3,14.9z"/>
			</g>
			<g id="XMLID_34_">
				<path fill="#252222" d="M57.4,37.2l-1,0c0-0.6,0-2.4-0.3-3.1c-1-2.1-2.7-3.3-5-4.9c-2.5-1.8-5.6-4-9.5-8.5
					c-3.8-4.4-4.9-8.6-5.6-11.1c-0.2-0.9-0.4-1.6-0.6-2c-0.6-1-2.5-1.7-4.1-2.4c-0.8-0.3-1.5-0.6-2.2-0.9c-1.4-0.7-1.5-3.3-1.5-3.6
					l1,0c0,0.9,0.3,2.4,1,2.7c0.6,0.3,1.3,0.6,2.1,0.9c1.9,0.8,3.9,1.5,4.6,2.8c0.3,0.5,0.5,1.2,0.8,2.3c0.6,2.4,1.7,6.5,5.4,10.7
					c3.8,4.4,6.8,6.6,9.3,8.3c2.3,1.7,4.1,3,5.3,5.3C57.4,34.7,57.4,37,57.4,37.2z"/>
			</g>
			<g id="XMLID_33_">
				<path fill="#252222" d="M37.2,47.5c0,0-0.1,0-0.1,0c-0.3-0.1-0.4-0.3-0.4-0.6c0,0,0.2-0.9,0.7-2c0.1-0.2,0.4-0.3,0.7-0.2
					c0.2,0.1,0.4,0.4,0.2,0.7c-0.5,1-0.6,1.7-0.6,1.8C37.6,47.3,37.4,47.5,37.2,47.5z M39.5,43.3c-0.1,0-0.3-0.1-0.4-0.2
					c-0.2-0.2-0.2-0.5,0-0.7c0.5-0.5,1.1-0.9,1.8-1.2c0.2-0.1,0.5,0,0.7,0.3c0.1,0.3,0,0.5-0.3,0.7c-0.5,0.2-1,0.6-1.5,1
					C39.7,43.3,39.6,43.3,39.5,43.3z M67.9,41.5c-0.3,0-0.5-0.2-0.5-0.5c0-0.3,0.2-0.5,0.5-0.5c0.7,0,1.3,0,2,0
					c0.3,0,0.5,0.2,0.5,0.5c0,0.3-0.2,0.5-0.5,0.5C69.2,41.5,68.6,41.5,67.9,41.5C67.9,41.5,67.9,41.5,67.9,41.5z M65,41.5
					C65,41.5,65,41.5,65,41.5c-0.7,0-1.3,0-2-0.1c-0.3,0-0.5-0.2-0.5-0.5c0-0.3,0.3-0.5,0.5-0.5c0.7,0,1.3,0.1,2,0.1
					c0.3,0,0.5,0.2,0.5,0.5C65.5,41.3,65.3,41.5,65,41.5z M43.8,41.5c-0.2,0-0.4-0.2-0.5-0.4c0-0.3,0.1-0.5,0.4-0.6
					c0.6-0.1,1.3-0.2,2-0.3c0.3,0,0.5,0.2,0.6,0.4c0,0.3-0.2,0.5-0.4,0.6C45.2,41.3,44.5,41.3,43.8,41.5
					C43.9,41.5,43.9,41.5,43.8,41.5z M72.7,41.4c-0.3,0-0.5-0.2-0.5-0.5c0-0.3,0.2-0.5,0.5-0.5c0.7-0.1,1.4-0.1,1.9-0.2
					c0.3,0,0.5,0.2,0.6,0.4c0,0.3-0.2,0.5-0.4,0.6C74.1,41.2,73.5,41.3,72.7,41.4C72.7,41.4,72.7,41.4,72.7,41.4z M60.2,41.3
					C60.2,41.3,60.2,41.3,60.2,41.3c-0.7-0.1-1.4-0.1-2-0.2l0.1-1c0,0,0,0,0,0c0.6,0.1,1.3,0.1,1.9,0.2c0.3,0,0.5,0.3,0.5,0.5
					C60.7,41.1,60.5,41.3,60.2,41.3z M48.6,40.9c-0.3,0-0.5-0.2-0.5-0.5c0-0.3,0.2-0.5,0.5-0.5c0.7,0,1.3-0.1,2-0.1
					c0.3,0,0.5,0.2,0.5,0.5c0,0.3-0.2,0.5-0.5,0.5C50,40.9,49.3,40.9,48.6,40.9C48.7,40.9,48.6,40.9,48.6,40.9z M55.4,40.9
					C55.4,40.9,55.4,40.9,55.4,40.9c-0.7,0-1.3,0-2-0.1c-0.3,0-0.5-0.2-0.5-0.5s0.2-0.5,0.5-0.5c0.7,0,1.3,0,2,0.1
					c0.3,0,0.5,0.2,0.5,0.5C55.9,40.7,55.7,40.9,55.4,40.9z M77.4,40.4c-0.2,0-0.3-0.1-0.4-0.2c-0.2-0.2-0.1-0.5,0.1-0.7
					c-0.1-0.1-0.3-0.4-0.7-0.6c-0.2-0.1-0.3-0.4-0.2-0.7s0.5-0.3,0.7-0.2c0.8,0.5,1.2,1,1.2,1.5c0,0.2-0.1,0.5-0.4,0.8
					C77.6,40.4,77.5,40.4,77.4,40.4z M74,37.9c0,0-0.1,0-0.1,0c-0.3-0.1-0.5-0.2-0.6-0.2c-0.2-0.1-0.4-0.3-0.4-0.5
					c0-0.3,0.3-0.6,0.6-0.5c0.1,0,0.3,0.1,0.6,0.2c0.3,0.1,0.4,0.4,0.3,0.6C74.4,37.7,74.2,37.9,74,37.9z"/>
			</g>
			<g id="XMLID_32_">
				<path fill="#252222" d="M34.6,39.6c-0.2,0-0.3-0.1-0.4-0.1L34,39.3c-0.2-0.2-0.3-0.5-0.1-0.7c0.2-0.2,0.5-0.3,0.7-0.1l0.2,0.1
					l-0.2,0.4l0.2,0.5C34.8,39.6,34.7,39.6,34.6,39.6z M32.1,37.7c-0.1,0-0.2,0-0.3-0.1c-0.5-0.4-1-0.8-1.6-1.2
					c-0.2-0.2-0.3-0.5-0.1-0.7s0.5-0.3,0.7-0.1c0.6,0.4,1.1,0.8,1.6,1.2c0.2,0.2,0.3,0.5,0.1,0.7C32.4,37.6,32.2,37.7,32.1,37.7z
					 M28.1,34.8c-0.1,0-0.2,0-0.3-0.1c-0.5-0.4-1.1-0.7-1.6-1.1c-0.2-0.2-0.3-0.5-0.1-0.7c0.2-0.2,0.5-0.3,0.7-0.1
					c0.6,0.4,1.1,0.8,1.6,1.1c0.2,0.2,0.3,0.5,0.1,0.7C28.5,34.8,28.3,34.8,28.1,34.8z M24.1,32.1c-0.1,0-0.2,0-0.3-0.1
					c-0.6-0.4-1.1-0.7-1.7-1.1c-0.2-0.1-0.3-0.5-0.2-0.7c0.1-0.2,0.5-0.3,0.7-0.2c0.6,0.3,1.1,0.7,1.7,1.1c0.2,0.1,0.3,0.5,0.1,0.7
					C24.5,32.1,24.3,32.1,24.1,32.1z M20,29.6c-0.1,0-0.2,0-0.2-0.1c-0.6-0.3-1.2-0.6-1.7-0.9l0.4-0.9l0,0c0.6,0.3,1.1,0.6,1.7,0.9
					c0.2,0.1,0.3,0.4,0.2,0.7C20.4,29.5,20.2,29.6,20,29.6z M15.7,27.6c-0.1,0-0.1,0-0.2,0c-0.6-0.2-1.2-0.5-1.8-0.7
					c-0.3-0.1-0.4-0.4-0.3-0.6c0.1-0.3,0.4-0.4,0.6-0.3c0.6,0.2,1.2,0.5,1.9,0.7c0.3,0.1,0.4,0.4,0.3,0.7
					C16.1,27.4,15.9,27.6,15.7,27.6z M11.1,26c0,0-0.1,0-0.1,0c-0.7-0.2-1.3-0.4-1.9-0.5c-0.3-0.1-0.4-0.3-0.4-0.6
					c0.1-0.3,0.3-0.4,0.6-0.4c0.6,0.2,1.3,0.3,1.9,0.5c0.3,0.1,0.4,0.4,0.3,0.6C11.5,25.9,11.3,26,11.1,26z M6.4,24.8
					C6.4,24.8,6.4,24.8,6.4,24.8c-1.3-0.2-2-0.4-2-0.4c-0.3,0-0.5-0.3-0.4-0.6c0-0.3,0.3-0.5,0.6-0.4c0,0,0.8,0.1,2,0.4
					c0.3,0.1,0.4,0.3,0.4,0.6C6.9,24.7,6.7,24.8,6.4,24.8z"/>
			</g>
		</g>
		<g id="XMLID_12_">
			<path fill="#6B4F39" stroke="#252222" stroke-miterlimit="10" d="M60.9,30.1"/>
		</g>
	</g>
</g>
<g id="Слой_4">
</g>
<g id="Слой_2">
</g>
<g id="Слой_7" display="none">
</g>
<g id="Слой_8">
</g>
</svg>
