<?xml version="1.0" encoding="utf-8"?>
<!-- Generator: Adobe Illustrator 18.1.0, SVG Export Plug-In . SVG Version: 6.00 Build 0)  -->
<!DOCTYPE svg PUBLIC "-//W3C//DTD SVG 1.1//EN" "http://www.w3.org/Graphics/SVG/1.1/DTD/svg11.dtd">
<svg version="1.1" xmlns="http://www.w3.org/2000/svg" xmlns:xlink="http://www.w3.org/1999/xlink" x="0px" y="0px"
	 viewBox="0 0 102.3 37.1" enable-background="new 0 0 102.3 37.1" xml:space="preserve">
<g id="Слой_6" display="none">
	<rect id="XMLID_2_" x="-77.5" y="-146.3" display="inline" fill="#4891C2" width="1220.5" height="801.9"/>
</g>
<g id="Слой_5">
</g>
<g id="Слой_4">
</g>
<g id="Слой_2">
	<g>
		<g id="XMLID_4_">
			<path fill="#3D3B3B" d="M4,27.2c0,0-0.6,2.5-0.6,4.9c0,4.8,2.2,4.4,2.2,4.4h76.7c0,0,10.9,0,15.9-3.1c3.5-2.2,3.8-5.6,3.5-7.4
				c-0.3-2.5-2.3-3.5-2.3-3.5L4,27.2z"/>
			<path fill="#252222" d="M5.5,37.1c-0.3,0-0.9-0.1-1.4-0.6c-0.8-0.8-1.2-2.2-1.2-4.3c0-2.5,0.6-5,0.6-5.1l0.1-0.4l96-4.8l0.1,0.1
				c0.1,0,2.2,1.1,2.6,3.9c0.2,1.6,0.2,5.5-3.8,7.9C93.4,37,82.7,37,82.3,37H5.6C5.6,37,5.6,37.1,5.5,37.1z M4.4,27.7
				c-0.2,0.8-0.5,2.6-0.5,4.5c0,2.2,0.5,3.2,0.9,3.6c0.3,0.3,0.6,0.3,0.7,0.3v0.5l0-0.5l76.7,0c0.1,0,10.8,0,15.7-3.1
				c3.5-2.2,3.5-5.6,3.3-7c-0.2-1.9-1.5-2.8-1.9-3.1L4.4,27.7z"/>
		</g>
		<g id="XMLID_1_">
			<path fill="#8E8C89" d="M4,27.2c0,0-0.9-0.7-1.5-3C1.6,20.7,3,10.9,4,10.3s12.1,2.1,19.1,2c7-0.1,14.7-2.4,18.2-4.6
				c6.2-4,5.1-6.6,7.5-6.6c8.3,0,12.5,7.6,23.4,13.4c5.7,3,21,3,24.6,4.1c2.2,0.7,3.9,1.9,2.2,4.8c-1.9,3.5-20.6,4.3-20.6,4.3
				L4,27.2z"/>
			<path fill="#252222" d="M78.4,28.2L78.4,28.2L3.8,27.7l-0.1-0.1c-0.1-0.1-1-0.9-1.6-3.3C1.2,20.9,2.4,10.7,3.7,9.9
				c0.2-0.1,0.4-0.1,0.8-0.1c1,0,2.9,0.3,5.3,0.7c3.9,0.6,9.3,1.5,13.3,1.4c7-0.1,14.6-2.4,17.9-4.6c3.2-2.1,4.4-3.8,5.2-4.9
				c0.7-1,1.2-1.7,2.6-1.8c5.2,0,8.8,2.8,13.3,6.4c2.8,2.3,6.1,4.8,10.3,7.1c3.6,1.9,11.1,2.6,17.1,3.1c3.4,0.3,6.1,0.6,7.4,1
				c1.1,0.3,2.5,0.9,3,2.2c0.4,0.9,0.2,2.1-0.5,3.4C97.4,27.4,80.3,28.2,78.4,28.2L78.4,28.2z M4.2,26.7l74.2,0.6
				c7.4-0.3,18.9-1.6,20.2-4c0.6-1,0.7-1.9,0.5-2.5c-0.3-0.7-1.1-1.2-2.4-1.6c-1.2-0.4-4-0.6-7.2-0.9c-6.1-0.6-13.7-1.2-17.4-3.3
				c-4.3-2.3-7.6-4.9-10.5-7.2c-4.3-3.4-7.8-6.2-12.6-6.2c-0.9,0-1.1,0.4-1.8,1.3c-0.8,1.2-2.1,3-5.5,5.2c-3.4,2.2-11,4.6-18.4,4.7
				c-4,0.1-9.3-0.7-13.4-1.4c-2.3-0.4-4.3-0.7-5.2-0.7c-0.2,0-0.3,0-0.3,0C3.5,11.5,2.1,20.7,3,24C3.4,25.6,4,26.4,4.2,26.7z"/>
		</g>
		<g id="XMLID_3_">
			<path fill="#A3C257" d="M51.5,7.7L51.5,7.7c-0.7-0.6-0.8-1.7-0.2-2.4L55,1.1c0.6-0.7,1.7-0.8,2.4-0.2l0,0
				c0.7,0.6,0.8,1.7,0.2,2.4l-3.7,4.3C53.3,8.2,52.2,8.3,51.5,7.7z"/>
			<path fill="#252222" d="M52.6,8.6c-0.5,0-1-0.2-1.4-0.5c-0.9-0.8-1-2.2-0.2-3.1l3.7-4.3c0.8-0.9,2.2-1,3.1-0.2
				c0.4,0.4,0.7,0.9,0.8,1.5c0,0.6-0.1,1.1-0.5,1.6l-3.7,4.3C53.9,8.4,53.3,8.6,52.6,8.6z M56.3,1c-0.3,0-0.7,0.2-0.9,0.4l-3.7,4.3
				c-0.4,0.5-0.4,1.2,0.1,1.7c0.5,0.4,1.3,0.3,1.7-0.1l3.7-4.3c0.2-0.2,0.3-0.5,0.3-0.9s-0.2-0.6-0.4-0.8C56.8,1.1,56.6,1,56.3,1z"
				/>
		</g>
		<g id="XMLID_5_">
			<path fill="#A3C257" d="M55.6,11.2L55.6,11.2c-0.7-0.6-0.8-1.7-0.2-2.4l3.7-4.3c0.6-0.7,1.7-0.8,2.4-0.2l0,0
				c0.7,0.6,0.8,1.7,0.2,2.4L58,11.1C57.4,11.8,56.3,11.8,55.6,11.2z"/>
			<path fill="#252222" d="M56.7,12.1c-0.5,0-1-0.2-1.4-0.5c-0.4-0.4-0.7-0.9-0.8-1.5c0-0.6,0.1-1.1,0.5-1.6l3.7-4.3
				c0.8-0.9,2.2-1,3.1-0.2c0.4,0.4,0.7,0.9,0.8,1.5c0,0.6-0.1,1.1-0.5,1.6l-3.7,4.3C58,11.9,57.4,12.1,56.7,12.1z M60.4,4.5
				c-0.3,0-0.7,0.2-0.9,0.4l-3.7,4.3c-0.2,0.2-0.3,0.5-0.3,0.9c0,0.3,0.2,0.6,0.4,0.8c0.5,0.4,1.3,0.3,1.7-0.1l3.7-4.3
				c0.2-0.2,0.3-0.5,0.3-0.9c0-0.3-0.2-0.6-0.4-0.8C61,4.6,60.7,4.5,60.4,4.5z"/>
		</g>
		<g id="XMLID_6_">
			<path fill="#A3C257" d="M60.4,14L60.4,14c-0.7-0.6-0.8-1.7-0.2-2.4l3.7-4.3c0.6-0.7,1.7-0.8,2.4-0.2l0,0C67,7.7,67,8.8,66.4,9.5
				l-3.7,4.3C62.2,14.5,61.1,14.6,60.4,14z"/>
			<path fill="#252222" d="M61.5,14.9c-0.5,0-1-0.2-1.4-0.5c-0.9-0.8-1-2.2-0.2-3.1L63.5,7c0.7-0.9,2.2-1,3.1-0.2
				c0.9,0.8,1,2.2,0.2,3.1l-3.7,4.3C62.7,14.6,62.1,14.9,61.5,14.9z M65.2,7.2c-0.3,0-0.7,0.2-0.9,0.4l-3.7,4.3
				c-0.4,0.5-0.4,1.2,0.1,1.7c0.5,0.4,1.3,0.3,1.7-0.1l3.7-4.3c0.4-0.5,0.4-1.2-0.1-1.7C65.7,7.3,65.4,7.2,65.2,7.2z"/>
		</g>
		<g id="XMLID_7_">
			<path fill="#A3C257" d="M64.4,17.3L64.4,17.3c-0.7-0.6-0.8-1.7-0.2-2.4l3.7-4.3c0.6-0.7,1.7-0.8,2.4-0.2v0
				c0.7,0.6,0.8,1.7,0.2,2.4l-3.7,4.3C66.1,17.9,65.1,17.9,64.4,17.3z"/>
			<path fill="#252222" d="M65.5,18.2c-0.5,0-1-0.2-1.4-0.5c-0.4-0.4-0.7-0.9-0.8-1.5c0-0.6,0.1-1.1,0.5-1.6l3.7-4.3
				c0.8-0.9,2.2-1,3.1-0.2c0.4,0.4,0.7,0.9,0.8,1.5c0,0.6-0.1,1.1-0.5,1.6l-3.7,4.3C66.7,18,66.1,18.2,65.5,18.2z M69.1,10.6
				c-0.3,0-0.7,0.2-0.9,0.4l-3.7,4.3c-0.2,0.2-0.3,0.5-0.3,0.9c0,0.3,0.2,0.6,0.4,0.8c0.5,0.4,1.3,0.3,1.7-0.1l3.7-4.3
				c0.2-0.2,0.3-0.5,0.3-0.9c0-0.3-0.2-0.6-0.4-0.8C69.7,10.7,69.4,10.6,69.1,10.6z"/>
		</g>
		<g id="XMLID_8_">
			<g id="XMLID_58_">
				<path fill="#252222" d="M23.4,27.8c-0.2,0-0.4-0.1-0.4-0.3c0,0-0.2-0.3-0.5-0.8c-0.1-0.2-0.1-0.5,0.2-0.7
					c0.2-0.1,0.5-0.1,0.7,0.2c0.3,0.6,0.5,0.9,0.5,0.9c0.1,0.2,0,0.5-0.2,0.7C23.5,27.8,23.5,27.8,23.4,27.8z"/>
			</g>
			<g id="XMLID_57_">
				<path fill="#252222" d="M21.2,24.4c-0.2,0-0.3-0.1-0.4-0.2c-0.4-0.6-0.9-1.1-1.3-1.7c-0.2-0.2-0.2-0.5,0.1-0.7
					c0.2-0.2,0.5-0.2,0.7,0.1c0.5,0.6,0.9,1.1,1.3,1.7c0.2,0.2,0.1,0.5-0.1,0.7C21.4,24.4,21.3,24.4,21.2,24.4z M17.8,20.5
					c-0.1,0-0.3,0-0.3-0.1c-0.5-0.5-1-1-1.6-1.4c-0.2-0.2-0.2-0.5-0.1-0.7c0.2-0.2,0.5-0.2,0.7-0.1c0.5,0.5,1.1,0.9,1.6,1.5
					c0.2,0.2,0.2,0.5,0,0.7C18,20.5,17.9,20.5,17.8,20.5z M13.7,17.3c-0.1,0-0.2,0-0.3-0.1c-0.1-0.1-0.3-0.2-0.4-0.3
					c-0.4-0.3-0.9-0.5-1.4-0.8c-0.2-0.1-0.3-0.4-0.2-0.7c0.1-0.2,0.4-0.3,0.7-0.2c0.5,0.2,1,0.5,1.4,0.8c0.2,0.1,0.3,0.2,0.5,0.3
					c0.2,0.1,0.3,0.5,0.1,0.7C14,17.2,13.9,17.3,13.7,17.3z M9,15.1c-0.1,0-0.1,0-0.2,0c-0.7-0.2-1.3-0.4-2-0.6
					c-0.3-0.1-0.4-0.3-0.4-0.6c0.1-0.3,0.3-0.4,0.6-0.4c0.7,0.2,1.4,0.4,2.1,0.6c0.3,0.1,0.4,0.4,0.3,0.6C9.4,14.9,9.2,15.1,9,15.1z
					"/>
			</g>
			<g id="XMLID_56_">
				<path fill="#252222" d="M3.9,14C3.9,14,3.9,14,3.9,14C3.3,14,3,14,3,14c-0.3,0-0.5-0.2-0.5-0.5S2.7,13,3,13c0,0,0.4,0,1,0.1
					c0.3,0,0.5,0.3,0.5,0.5C4.4,13.8,4.2,14,3.9,14z"/>
			</g>
		</g>
		<g id="XMLID_10_">
			<g id="XMLID_156_">
				<path fill="#252222" d="M39.6,27.9c-0.1,0-0.1,0-0.2,0c-0.2-0.1-0.4-0.4-0.2-0.7c0,0,0.2-0.4,0.5-0.9c0.2-0.2,0.5-0.3,0.7-0.1
					c0.2,0.2,0.3,0.5,0.1,0.7c-0.3,0.5-0.5,0.8-0.5,0.8C40,27.8,39.8,27.9,39.6,27.9z"/>
			</g>
			<g id="XMLID_155_">
				<path fill="#252222" d="M41.9,25c-0.1,0-0.3-0.1-0.4-0.2c-0.2-0.2-0.2-0.5,0-0.7c0.5-0.5,1.1-0.9,1.6-1.2
					c0.2-0.1,0.5-0.1,0.7,0.2s0.1,0.5-0.2,0.7c-0.5,0.3-1,0.7-1.5,1.1C42.2,25,42.1,25,41.9,25z M46,22.7c-0.2,0-0.4-0.1-0.5-0.4
					c-0.1-0.3,0.1-0.5,0.4-0.6c0.3-0.1,0.6-0.2,1-0.2c0.3-0.1,0.7-0.1,1-0.2c0.3,0,0.5,0.2,0.6,0.4c0,0.3-0.2,0.5-0.4,0.6
					c-0.3,0-0.7,0.1-1,0.2c-0.3,0.1-0.6,0.1-0.9,0.2C46.1,22.7,46.1,22.7,46,22.7z M50.7,22.1c-0.3,0-0.5-0.2-0.5-0.5
					c0-0.3,0.2-0.5,0.5-0.5c0.6-0.1,1.3-0.1,1.9-0.2c0.3,0,0.5,0.2,0.5,0.5s-0.2,0.5-0.5,0.5C52,22,51.4,22,50.7,22.1
					C50.7,22.1,50.7,22.1,50.7,22.1z M55.4,21.7c-0.3,0-0.5-0.2-0.5-0.5c0-0.3,0.2-0.5,0.5-0.5l1.9-0.1c0.3,0,0.5,0.2,0.5,0.5
					c0,0.3-0.2,0.5-0.5,0.5L55.4,21.7C55.4,21.7,55.4,21.7,55.4,21.7z M60.1,21.4c-0.3,0-0.5-0.2-0.5-0.5c0-0.3,0.2-0.5,0.5-0.5
					c0.7,0,1.3-0.1,1.9-0.1c0.3,0,0.5,0.2,0.5,0.5c0,0.3-0.2,0.5-0.5,0.5C61.5,21.3,60.8,21.4,60.1,21.4
					C60.1,21.4,60.1,21.4,60.1,21.4z M64.8,21c-0.3,0-0.5-0.2-0.5-0.4c0-0.3,0.2-0.5,0.4-0.6c0.4,0,0.8-0.1,1.1-0.2
					c0.2,0,0.5-0.1,0.7-0.2c0.3-0.1,0.5,0.1,0.6,0.3c0.1,0.3-0.1,0.5-0.3,0.6c-0.3,0.1-0.6,0.1-0.8,0.2C65.7,20.9,65.3,21,64.8,21
					C64.9,21,64.8,21,64.8,21z M69.2,19.5c-0.2,0-0.3-0.1-0.4-0.2c-0.2-0.2-0.1-0.5,0.1-0.7c0.5-0.3,1-0.7,1.5-1.2
					c0.2-0.2,0.5-0.2,0.7,0c0.2,0.2,0.2,0.5,0,0.7c-0.5,0.5-1,0.9-1.6,1.3C69.4,19.5,69.3,19.5,69.2,19.5z"/>
			</g>
			<g id="XMLID_154_">
				<path fill="#252222" d="M72.6,16.2c-0.1,0-0.2,0-0.3-0.1c-0.2-0.2-0.3-0.5-0.1-0.7c0.3-0.5,0.5-0.8,0.5-0.8
					c0.1-0.2,0.5-0.3,0.7-0.2c0.2,0.1,0.3,0.5,0.2,0.7c0,0-0.2,0.3-0.6,0.8C72.9,16.2,72.8,16.2,72.6,16.2z"/>
			</g>
		</g>
		<g id="XMLID_9_">
			<path fill="none" stroke="#252222" stroke-miterlimit="10" d="M0,11.6"/>
		</g>
		<g id="XMLID_11_">
			<g id="XMLID_16_">
				<path fill="#AEAEAE" d="M43.2,10.6c4-2.4,7.9-6.8,9.7-8.9v0c-1.2-0.4-2.4-0.6-3.8-0.6c-2.5,0-1.4,2.6-7.5,6.6
					c-3.5,2.3-11.2,4.5-18.2,4.6c-7,0.1-18.2-2.5-19.1-2c-0.3,0.2-0.6,1-0.8,2.2c4.3,1.2,12.4,3.1,20.2,3.1
					C28.5,15.6,37.3,14.2,43.2,10.6z"/>
				<path fill="#252222" d="M23.6,16.1c-7.9,0-16.1-1.9-20.4-3.1l-0.5-0.1l0.1-0.5c0.4-2,0.8-2.4,1.1-2.6c0.2-0.1,0.4-0.1,0.8-0.1
					c1,0,2.9,0.3,5.3,0.7c3.9,0.6,9.3,1.4,13.2,1.4c7-0.1,14.6-2.4,17.9-4.6c3.2-2.1,4.4-3.8,5.2-4.9c0.7-1,1.2-1.7,2.6-1.8
					c1.4,0,2.6,0.2,4,0.6l0.4,0.1v0.6L53.3,2c-2,2.3-5.9,6.6-9.8,9C37.3,14.8,28.2,16.1,23.6,16.1z M4,12.2
					c4.3,1.1,12.1,2.9,19.6,2.9c4.5,0,13.4-1.3,19.3-5C46.5,8,50,4.3,52,1.9c-1-0.2-1.9-0.4-2.9-0.4c-0.9,0-1.1,0.4-1.8,1.3
					c-0.8,1.2-2.1,3-5.5,5.2c-3.4,2.2-11,4.6-18.5,4.7c-4,0.1-9.3-0.7-13.4-1.4c-2.3-0.4-4.3-0.7-5.2-0.7c-0.2,0-0.3,0-0.3,0
					C4.5,10.8,4.3,11,4,12.2z"/>
			</g>
		</g>
	</g>
</g>
<g id="Слой_7" display="none">
</g>
<g id="Слой_8">
</g>
</svg>
