<?xml version="1.0" encoding="utf-8"?>
<!-- Generator: Adobe Illustrator 18.1.0, SVG Export Plug-In . SVG Version: 6.00 Build 0)  -->
<!DOCTYPE svg PUBLIC "-//W3C//DTD SVG 1.1//EN" "http://www.w3.org/Graphics/SVG/1.1/DTD/svg11.dtd">
<svg version="1.1" xmlns="http://www.w3.org/2000/svg" xmlns:xlink="http://www.w3.org/1999/xlink" x="0px" y="0px"
	 viewBox="0 0 78.1 90.3" enable-background="new 0 0 78.1 90.3" xml:space="preserve">
<g id="Слой_6" display="none">
	<rect id="XMLID_2_" x="-576" y="-107.8" display="inline" fill="#4891C2" width="1220.5" height="801.9"/>
</g>
<g id="Слой_5">
</g>
<g id="Слой_4">
</g>
<g id="Слой_2">
</g>
<g id="Слой_7" display="none">
</g>
<g id="Слой_8">
	<g id="XMLID_168_">
		<g id="XMLID_147_">
			<path fill="#5CA4A1" d="M26.7,0.5c0,0,4,1.8,12.3,1.8c9.2,0,12.3-1.8,12.3-1.8v28.7H26.7V0.5z"/>
			<path fill="#252222" d="M51.4,29.7H26.7c-0.3,0-0.5-0.2-0.5-0.5V0.5c0-0.2,0.1-0.3,0.2-0.4C26.6,0,26.8,0,26.9,0
				c0,0,4,1.8,12.1,1.8c8.9,0,12.1-1.7,12.1-1.7c0.2-0.1,0.3-0.1,0.5,0c0.2,0.1,0.2,0.3,0.2,0.4v28.7C51.9,29.5,51.7,29.7,51.4,29.7
				z M27.2,28.7h23.7V1.3c-1.4,0.5-5,1.5-11.8,1.5c-6.5,0-10.3-1.1-11.8-1.6V28.7z"/>
		</g>
		<g id="XMLID_145_">
			<path fill="#7BC2D1" d="M69.8,7.6c-2-3-5.1-5-8.7-5.5l-9.7-1.5c-0.2,0-0.3,0.1-0.3,0.2c-0.4,1.8-2.6,12-4,15.3
				c-1.8,4.6-6.7,10.7-7.8,12.1c-0.1,0.1-0.3,0.1-0.4,0c-1.1-1.3-6-7.5-7.8-12.1c-1.3-3.3-3.6-13.5-4-15.3c0-0.2-0.2-0.2-0.3-0.2
				L17,2c-3.5,0.6-6.7,2.6-8.7,5.5L0.6,19.3c-0.1,0.1-0.1,0.2,0,0.3c0.5,0.8,2.9,4.7,6.8,7.1c4.7,2.9,8.8,3.7,9.8,3.8
				c0.1,0,0.2,0.1,0.2,0.3c0.1,2.1,0.5,17,0.3,25.6c-0.1,5.7-1.3,24.6-1.6,29.5c0,0.7,0.4,1.3,1.1,1.4c2,0.4,6.3,1.3,9.9,1.8
				c4.8,0.7,12.1,0.8,12.1,0.8s7.2-0.1,12.1-0.8c3.7-0.5,8.2-1.5,10.1-1.9c0.5-0.1,0.9-0.6,0.9-1.1c-0.3-4.5-1.5-23.9-1.7-29.7
				c-0.2-8.6,0.3-23.5,0.3-25.6c0-0.1,0.1-0.3,0.2-0.3c1-0.2,5-0.9,9.8-3.8c3.9-2.4,6.3-6.2,6.8-7.1c0.1-0.1,0.1-0.2,0-0.3L69.8,7.6
				z"/>
			<path fill="#252222" d="M39.1,90.4L39.1,90.4c-0.1,0-7.3-0.1-12.1-0.8c-3.5-0.5-7.7-1.4-9.9-1.8c-0.9-0.2-1.5-1-1.5-2
				c0.4-5.5,1.5-23.9,1.6-29.5c0.2-8.4-0.2-23-0.3-25.4c-1.3-0.2-5.2-1.1-9.8-3.9c-4-2.4-6.5-6.5-7-7.2C0,19.6,0,19.3,0.1,19
				L7.9,7.3c2.1-3.1,5.3-5.2,9-5.8L26.8,0c0.4,0,0.7,0.3,0.8,0.6c0.4,2,2.6,12,3.9,15.2c1.7,4.3,6.3,10.2,7.6,11.7
				c1.3-1.6,5.9-7.4,7.6-11.7c1.3-3.3,3.5-13.3,3.9-15.2C50.7,0.3,51,0,51.4,0l0.1,0l9.7,1.5c3.7,0.6,6.9,2.7,9,5.8L78,19
				c0.2,0.3,0.2,0.6,0,0.9c-0.5,0.8-3,4.8-7,7.2c-4.5,2.8-8.5,3.6-9.8,3.9c-0.1,2.4-0.5,17-0.3,25.4c0.1,5.9,1.4,25.8,1.7,29.7
				c0,0.8-0.5,1.5-1.3,1.7c-1.8,0.4-6.4,1.3-10.1,1.9C46.4,90.3,39.1,90.4,39.1,90.4L39.1,90.4z M1,19.5c0.6,1,2.9,4.6,6.6,6.8
				c4.6,2.8,8.5,3.6,9.6,3.8c0.4,0.1,0.7,0.4,0.7,0.7c0.1,1.7,0.5,16.9,0.3,25.6c-0.1,5.6-1.3,24-1.6,29.5c0,0.4,0.3,0.8,0.7,0.9
				c2.2,0.5,6.4,1.3,9.8,1.8c4.7,0.7,11.7,0.8,12,0.8c0.3,0,7.3-0.2,12-0.8c3.7-0.5,8.3-1.5,10.1-1.9c0.3-0.1,0.5-0.3,0.5-0.6
				c-0.3-3.9-1.5-23.9-1.7-29.8c-0.2-8.7,0.3-23.9,0.3-25.6c0-0.4,0.3-0.7,0.7-0.7c1.1-0.2,5-0.9,9.6-3.8c3.6-2.2,6-5.8,6.6-6.8
				L69.3,7.9C67.4,5,64.4,3.1,61,2.5L51.5,1c-0.5,2.4-2.6,12-3.9,15.2c-1.9,4.7-6.9,11-7.9,12.2c-0.3,0.4-0.9,0.4-1.2,0
				c-1.4-1.7-6.1-7.6-7.9-12.2C29.3,13,27.1,3.4,26.6,1l-9.5,1.5C13.7,3.1,10.7,5,8.8,7.9L1,19.5z"/>
		</g>
		<g id="XMLID_143_">
			<path fill="#252222" d="M17.4,31.3c-0.3,0-0.5-0.2-0.5-0.5l-0.2-5.9c0-0.3,0.2-0.5,0.5-0.5c0.3,0,0.5,0.2,0.5,0.5l0.2,5.9
				C17.9,31,17.7,31.3,17.4,31.3C17.4,31.3,17.4,31.3,17.4,31.3z"/>
		</g>
		<g id="XMLID_140_">
			<path fill="#252222" d="M60.8,31.3C60.7,31.3,60.7,31.3,60.8,31.3c-0.3,0-0.5-0.2-0.5-0.5l0.2-5.9c0-0.3,0.2-0.5,0.5-0.5
				c0,0,0,0,0,0c0.3,0,0.5,0.2,0.5,0.5l-0.2,5.9C61.2,31.1,61,31.3,60.8,31.3z"/>
		</g>
		<g id="XMLID_144_">
			<path fill="#252222" d="M39.1,32.3c-0.3,0-0.6-0.1-0.9-0.3c-0.2-0.2-0.3-0.5-0.1-0.7c0.2-0.2,0.5-0.3,0.7-0.1
				c0.2,0.2,0.6,0.1,0.8-0.1l0.3-0.3c0.2-0.2,0.5-0.2,0.7,0c0.2,0.2,0.2,0.5,0,0.7l-0.3,0.3C39.9,32.1,39.5,32.3,39.1,32.3z
				 M36.6,30c-0.1,0-0.3-0.1-0.4-0.2c-0.4-0.5-0.8-1-1.3-1.5c-0.2-0.2-0.1-0.5,0.1-0.7c0.2-0.2,0.5-0.1,0.7,0.1
				c0.4,0.5,0.9,1,1.3,1.5c0.2,0.2,0.2,0.5-0.1,0.7C36.8,30,36.7,30,36.6,30z M42,29.4c-0.1,0-0.2,0-0.3-0.1
				c-0.2-0.2-0.2-0.5-0.1-0.7c0.4-0.5,0.8-1,1.3-1.5c0.2-0.2,0.5-0.2,0.7-0.1c0.2,0.2,0.2,0.5,0.1,0.7c-0.4,0.5-0.9,1.1-1.3,1.5
				C42.3,29.4,42.2,29.4,42,29.4z M33.5,26.3c-0.1,0-0.3-0.1-0.4-0.2c-0.4-0.5-0.8-1.1-1.2-1.6c-0.2-0.2-0.1-0.5,0.1-0.7
				c0.2-0.2,0.5-0.1,0.7,0.1c0.4,0.5,0.8,1.1,1.2,1.6c0.2,0.2,0.1,0.5-0.1,0.7C33.7,26.2,33.6,26.3,33.5,26.3z M45,25.7
				c-0.1,0-0.2,0-0.3-0.1c-0.2-0.2-0.3-0.5-0.1-0.7c0.4-0.5,0.8-1,1.2-1.6c0.2-0.2,0.5-0.3,0.7-0.1c0.2,0.2,0.3,0.5,0.1,0.7
				c-0.4,0.5-0.8,1.1-1.2,1.6C45.3,25.6,45.2,25.7,45,25.7z M30.7,22.4c-0.2,0-0.3-0.1-0.4-0.2c-0.4-0.6-0.7-1.1-1.1-1.7
				c-0.1-0.2-0.1-0.5,0.2-0.7c0.2-0.1,0.5-0.1,0.7,0.2c0.3,0.5,0.7,1.1,1,1.7c0.2,0.2,0.1,0.5-0.1,0.7
				C30.9,22.3,30.8,22.4,30.7,22.4z M47.8,21.8c-0.1,0-0.2,0-0.3-0.1c-0.2-0.1-0.3-0.5-0.2-0.7c0.4-0.6,0.7-1.1,1-1.7
				c0.1-0.2,0.4-0.3,0.7-0.2c0.2,0.1,0.3,0.4,0.2,0.7c-0.3,0.6-0.7,1.1-1,1.7C48.2,21.7,48,21.8,47.8,21.8z M28.3,18.2
				c-0.2,0-0.4-0.1-0.5-0.3c-0.2-0.5-0.5-1.2-0.7-1.9c-0.1-0.3,0-0.5,0.3-0.6c0.3-0.1,0.5,0,0.6,0.3c0.2,0.7,0.5,1.3,0.7,1.8
				c0.1,0.3,0,0.5-0.3,0.7C28.4,18.2,28.4,18.2,28.3,18.2z M50.1,17.5c-0.1,0-0.1,0-0.2,0c-0.3-0.1-0.4-0.4-0.3-0.6
				c0.2-0.5,0.4-1.2,0.7-1.8c0.1-0.3,0.4-0.4,0.6-0.3c0.3,0.1,0.4,0.4,0.3,0.6c-0.2,0.7-0.5,1.3-0.7,1.9
				C50.5,17.4,50.3,17.5,50.1,17.5z M26.7,13.6c-0.2,0-0.4-0.1-0.5-0.3c-0.2-0.6-0.4-1.3-0.6-1.9c-0.1-0.3,0.1-0.5,0.3-0.6
				c0.3-0.1,0.5,0.1,0.6,0.3c0.2,0.6,0.4,1.3,0.6,1.9c0.1,0.3-0.1,0.5-0.3,0.6C26.8,13.6,26.7,13.6,26.7,13.6z M51.7,12.9
				c0,0-0.1,0-0.1,0c-0.3-0.1-0.4-0.4-0.3-0.6c0.2-0.6,0.4-1.3,0.6-1.9c0.1-0.3,0.4-0.4,0.6-0.3c0.3,0.1,0.4,0.4,0.3,0.6
				c-0.2,0.6-0.4,1.3-0.6,1.9C52.1,12.8,51.9,12.9,51.7,12.9z M25.3,9c-0.2,0-0.4-0.1-0.5-0.4c-0.2-0.7-0.4-1.3-0.5-1.9
				c-0.1-0.3,0.1-0.5,0.3-0.6c0.3-0.1,0.5,0.1,0.6,0.3c0.2,0.6,0.4,1.3,0.5,1.9c0.1,0.3-0.1,0.5-0.3,0.6C25.4,9,25.3,9,25.3,9z
				 M53,8.3c0,0-0.1,0-0.1,0c-0.3-0.1-0.4-0.4-0.3-0.6c0.2-0.7,0.4-1.3,0.5-1.9c0.1-0.3,0.3-0.4,0.6-0.3C54,5.5,54.1,5.8,54.1,6
				c-0.2,0.6-0.4,1.3-0.5,1.9C53.5,8.2,53.3,8.3,53,8.3z M24,4.4c-0.2,0-0.4-0.1-0.5-0.4c-0.2-0.8-0.4-1.4-0.5-1.9
				c-0.1-0.3,0.1-0.5,0.4-0.6c0.3-0.1,0.5,0.1,0.6,0.4c0.1,0.5,0.3,1.2,0.5,1.9c0.1,0.3-0.1,0.5-0.4,0.6C24.1,4.4,24,4.4,24,4.4z
				 M54.3,3.7c0,0-0.1,0-0.1,0c-0.3-0.1-0.4-0.3-0.4-0.6c0.2-0.9,0.4-1.6,0.5-1.9c0.1-0.3,0.3-0.4,0.6-0.4c0.3,0.1,0.4,0.3,0.4,0.6
				c-0.1,0.4-0.3,1-0.5,1.9C54.8,3.5,54.6,3.7,54.3,3.7z"/>
		</g>
		<g id="XMLID_148_">
			<path fill="#252222" d="M39.1,6.5c-0.4,0-0.9,0-1.6-0.1c-0.3,0-0.5-0.3-0.5-0.5c0-0.3,0.3-0.5,0.5-0.5c0.6,0.1,1.1,0.1,1.5,0.1
				c0.1,0,0.3,0,0.4,0C39.8,5.5,40,5.7,40,6c0,0.3-0.2,0.5-0.5,0.5C39.3,6.5,39.2,6.5,39.1,6.5z M42.3,6.3c-0.2,0-0.5-0.2-0.5-0.4
				c0-0.3,0.2-0.5,0.4-0.6c0.6-0.1,1.3-0.2,2-0.2c0.3,0,0.5,0.2,0.6,0.4c0,0.3-0.2,0.5-0.4,0.6C43.7,6.1,43,6.2,42.3,6.3
				C42.4,6.3,42.3,6.3,42.3,6.3z M34.7,6.1C34.7,6.1,34.6,6.1,34.7,6.1c-0.7-0.1-1.4-0.2-2-0.3c-0.3,0-0.5-0.3-0.4-0.6
				c0-0.3,0.3-0.5,0.6-0.4c0.6,0.1,1.3,0.2,2,0.3c0.3,0,0.5,0.3,0.4,0.6C35.1,6,34.9,6.1,34.7,6.1z M47.1,5.6
				c-0.2,0-0.5-0.2-0.5-0.4c0-0.3,0.1-0.5,0.4-0.6c0.8-0.1,1.4-0.2,2-0.3c0.3,0,0.5,0.1,0.6,0.4c0,0.3-0.1,0.5-0.4,0.6
				C48.6,5.4,47.9,5.5,47.1,5.6C47.1,5.6,47.1,5.6,47.1,5.6z M29.9,5.5C29.9,5.5,29.8,5.5,29.9,5.5c-1.3-0.2-2.1-0.3-2.1-0.3
				c-0.3,0-0.5-0.3-0.4-0.6s0.3-0.5,0.6-0.4c0,0,0.8,0.1,2,0.3c0.3,0,0.5,0.3,0.4,0.6C30.4,5.3,30.1,5.5,29.9,5.5z"/>
		</g>
	</g>
</g>
</svg>
