<?xml version="1.0" encoding="utf-8"?>
<!-- Generator: Adobe Illustrator 18.1.0, SVG Export Plug-In . SVG Version: 6.00 Build 0)  -->
<!DOCTYPE svg PUBLIC "-//W3C//DTD SVG 1.1//EN" "http://www.w3.org/Graphics/SVG/1.1/DTD/svg11.dtd">
<svg version="1.1" xmlns="http://www.w3.org/2000/svg" xmlns:xlink="http://www.w3.org/1999/xlink" x="0px" y="0px"
	 viewBox="0 0 86.4 77.4" enable-background="new 0 0 86.4 77.4" xml:space="preserve">
<g id="Слой_6" display="none">
	<rect id="XMLID_2_" x="-937.6" y="-119" display="inline" fill="#4891C2" width="1220.5" height="801.9"/>
</g>
<g id="Слой_5">
</g>
<g id="Слой_4">
</g>
<g id="Слой_2">
</g>
<g id="Слой_7" display="none">
</g>
<g id="Слой_8">
	<g id="XMLID_170_">
		<g id="XMLID_61_">
			<path fill="#495364" d="M3,60.1c0,0-1.2-0.4-1.5,1.3C1,64.5,0,72,0.8,73c0.3,0.4,7.8,2.9,18.3,3.6c13.6,1,22.8-0.7,23.6-1.5
				c0.5-0.5,0.5-7.3,0.6-10.7c0.1-1.6-0.8-1.9-0.8-1.9"/>
			<path fill="#252222" d="M27.3,77.4c-2.6,0-5.3-0.1-8.3-0.3C8.9,76.4,0.9,73.9,0.4,73.3c-1.1-1.4,0.6-11.5,0.6-12
				c0.1-0.7,0.4-1.2,0.8-1.5c0.6-0.4,1.2-0.2,1.3-0.2l-0.3,1L3,60.1l-0.1,0.5c0,0-0.3-0.1-0.5,0.1C2.1,60.8,2,61.2,2,61.5
				C1.2,66.2,0.7,72,1.2,72.7c0.6,0.4,8.1,2.7,18,3.5c13.7,1,22.4-0.7,23.2-1.4c0.2-0.5,0.3-4.6,0.4-7.3c0-1.1,0-2.2,0.1-3.1
				c0-1.1-0.4-1.4-0.5-1.4l0.4-0.9c0.1,0,1.1,0.5,1.1,2.4c0,0.9-0.1,1.9-0.1,3.1c-0.1,6.1-0.3,7.6-0.6,8
				C42.2,76.3,36,77.4,27.3,77.4z"/>
		</g>
		<g id="XMLID_28_">
			<path fill="#495364" d="M83.5,60.1c0,0,1.2-0.4,1.5,1.3c0.5,3.1,1.5,10.6,0.7,11.6c-0.3,0.4-7.8,2.9-18.3,3.6
				c-13.6,1-22.8-0.7-23.6-1.5c-0.5-0.5-0.5-7.3-0.6-10.7c-0.1-1.6,0.8-1.9,0.8-1.9"/>
			<path fill="#252222" d="M59.1,77.4c-8.7,0-14.8-1.1-15.7-2c-0.4-0.4-0.5-1.9-0.6-8c0-1.1,0-2.2-0.1-3.1c-0.1-1.9,1-2.3,1.1-2.4
				l0.4,0.9c0,0-0.5,0.3-0.4,1.4c0,0.9,0.1,1.9,0.1,3.1c0.1,2.7,0.2,6.8,0.4,7.4c0.7,0.6,9.4,2.3,23.1,1.3c9.9-0.7,17.3-3,18-3.5
				c0.4-0.6-0.1-6.4-0.9-11.1c0-0.3-0.2-0.6-0.4-0.8c-0.2-0.1-0.5-0.1-0.5-0.1l-0.3-1c0.1,0,0.7-0.2,1.3,0.2
				c0.4,0.3,0.7,0.8,0.8,1.5c0.1,0.4,1.7,10.6,0.6,12c-0.5,0.7-8.6,3.1-18.7,3.8C64.5,77.3,61.7,77.4,59.1,77.4z"/>
		</g>
		<g id="XMLID_62_">
			<path fill="#394356" d="M43.2,54.1l0.9,9.5c0,0,12.5,1.7,21.6,1c11.1-0.9,17.9-3.3,17.9-3.3l-3.9-60c0-0.6-0.6-0.9-1.1-0.8
				c-2.5,0.6-9.4,2-16.3,2c-2.6,0-10.8,0.4-19,0.4c-8.2,0-16.5-0.4-19-0.4c-6.9-0.1-13.7-1.5-16.3-2C7.4,0.4,6.8,0.8,6.8,1.3
				l-3.9,60c0,0,6.8,2.4,17.9,3.3c9.1,0.7,21.6-1,21.6-1L43.2,54.1z"/>
			<path fill="#252222" d="M60.7,65.3c-8,0-16.6-1.2-16.7-1.2L43.6,64l-0.4-4.4L42.8,64l-0.4,0.1c-0.1,0-8.7,1.2-16.7,1.2l0,0
				c-1.8,0-3.5-0.1-5-0.2c-11-0.9-17.9-3.3-18-3.3l-0.4-0.1L6.3,1.3C6.4,0.5,7.2-0.2,8,0c2.6,0.6,9.4,1.9,16.2,2
				c0.8,0,2.2,0,3.9,0.1c3.8,0.1,9.5,0.3,15.1,0.3c5.7,0,11.4-0.2,15.1-0.3c1.7-0.1,3.1-0.1,3.9-0.1C69,2,75.8,0.6,78.4,0
				c0.8-0.2,1.7,0.4,1.7,1.3l3.9,60.4l-0.4,0.1c-0.1,0-7,2.4-18,3.3C64.2,65.2,62.5,65.3,60.7,65.3z M44.5,63.2
				c1.8,0.2,9.2,1.1,16.2,1.1c1.8,0,3.4-0.1,4.9-0.2c9.5-0.7,15.9-2.6,17.4-3.1L79.1,1.4c0-0.2-0.2-0.4-0.4-0.4
				C76,1.6,69.1,3,62.2,3.1c-0.8,0-2.1,0-3.9,0.1c-3.8,0.1-9.5,0.3-15.2,0.3c-5.7,0-11.4-0.2-15.2-0.3c-1.7-0.1-3.1-0.1-3.9-0.1
				C17.3,3,10.4,1.6,7.8,1C7.5,1,7.3,1.2,7.3,1.4L3.4,61c1.5,0.5,7.9,2.4,17.4,3.1c1.5,0.1,3.1,0.2,4.9,0.2c7,0,14.4-0.9,16.2-1.1
				l0.8-9.1h1L44.5,63.2z"/>
		</g>
		<g id="XMLID_63_">
			<path fill="#252222" d="M43.2,13.3c-5.7,0-11.4-0.2-15.2-0.3c-1.7-0.1-3.1-0.1-3.9-0.1c-6.9-0.1-15.3-1.9-18-2.6l0.2-1
				c2.8,0.6,11.1,2.5,17.9,2.6c0.8,0,2.1,0.1,3.9,0.1c3.8,0.1,9.5,0.3,15.1,0.3c5.7,0,11.4-0.2,15.1-0.3c1.7-0.1,3.1-0.1,3.9-0.1
				C69,11.8,77.3,10,80,9.4l0.2,0.5l0,0.5c-2.7,0.6-11.1,2.5-18,2.6c-0.8,0-2.1,0-3.9,0.1C54.6,13.1,48.9,13.3,43.2,13.3z"/>
		</g>
		<g id="XMLID_110_">
			<rect x="42.7" y="12.8" fill="#252222" width="1" height="41.3"/>
		</g>
		<g id="XMLID_109_">
			<path fill="#252222" d="M42.2,36.3h-1.4c-0.2,0-0.5,0-0.7-0.1c-0.3-0.1-0.4-0.3-0.4-0.6c0.1-0.3,0.3-0.4,0.6-0.4
				c0.2,0,0.3,0.1,0.5,0.1h1.4c0.3,0,0.5,0.2,0.5,0.5S42.5,36.3,42.2,36.3z M38.2,34.5c-0.2,0-0.4-0.1-0.5-0.3
				c-0.2-0.4-0.2-0.8-0.2-1.3V32c0-0.3,0.2-0.5,0.5-0.5s0.5,0.2,0.5,0.5v0.9c0,0.3,0.1,0.6,0.2,0.9c0.1,0.3,0,0.5-0.3,0.7
				C38.3,34.5,38.2,34.5,38.2,34.5z M38,29.7c-0.3,0-0.5-0.2-0.5-0.5v-2c0-0.3,0.2-0.5,0.5-0.5s0.5,0.2,0.5,0.5v2
				C38.5,29.5,38.2,29.7,38,29.7z M38,24.9c-0.3,0-0.5-0.2-0.5-0.5v-2c0-0.3,0.2-0.5,0.5-0.5s0.5,0.2,0.5,0.5v2
				C38.5,24.7,38.2,24.9,38,24.9z M38,20.1c-0.3,0-0.5-0.2-0.5-0.5v-2c0-0.3,0.2-0.5,0.5-0.5s0.5,0.2,0.5,0.5v2
				C38.5,19.8,38.2,20.1,38,20.1z M38,15.3c-0.3,0-0.5-0.2-0.5-0.5v-2c0-0.3,0.2-0.5,0.5-0.5s0.5,0.2,0.5,0.5v2
				C38.5,15,38.2,15.3,38,15.3z"/>
		</g>
	</g>
</g>
</svg>
