<?xml version="1.0" encoding="utf-8"?>
<!-- Generator: Adobe Illustrator 18.1.0, SVG Export Plug-In . SVG Version: 6.00 Build 0)  -->
<!DOCTYPE svg PUBLIC "-//W3C//DTD SVG 1.1//EN" "http://www.w3.org/Graphics/SVG/1.1/DTD/svg11.dtd">
<svg version="1.1" id="Слой_1" xmlns="http://www.w3.org/2000/svg" xmlns:xlink="http://www.w3.org/1999/xlink" x="0px" y="0px"
	 viewBox="0 0 34.6 369.2" enable-background="new 0 0 34.6 369.2" xml:space="preserve">
<g opacity="0.7">
	<rect x="0" y="0" fill="#FFFFFF" width="11.5" height="11.5"/>
	<rect x="11.5" y="0" fill="#555555" width="11.5" height="11.5"/>
	<rect x="23.1" y="0" fill="#FFFFFF" width="11.5" height="11.5"/>
	<rect x="23.1" y="11.5" fill="#555555" width="11.5" height="11.5"/>
	<rect x="11.5" y="11.5" fill="#FFFFFF" width="11.5" height="11.5"/>
	<rect x="0" y="11.5" fill="#555555" width="11.5" height="11.5"/>
	<rect x="0" y="23.1" fill="#FFFFFF" width="11.5" height="11.5"/>
	<rect x="11.5" y="23.1" fill="#555555" width="11.5" height="11.5"/>
	<rect x="23.1" y="23.1" fill="#FFFFFF" width="11.5" height="11.5"/>
	<rect x="23.1" y="34.6" fill="#555555" width="11.5" height="11.5"/>
	<rect x="11.5" y="34.6" fill="#FFFFFF" width="11.5" height="11.5"/>
	<rect x="0" y="34.6" fill="#555555" width="11.5" height="11.5"/>
	<rect x="0" y="46.2" fill="#FFFFFF" width="11.5" height="11.5"/>
	<rect x="11.5" y="46.2" fill="#555555" width="11.5" height="11.5"/>
	<rect x="23.1" y="46.2" fill="#FFFFFF" width="11.5" height="11.5"/>
	<rect x="23.1" y="57.7" fill="#555555" width="11.5" height="11.5"/>
	<rect x="11.5" y="57.7" fill="#FFFFFF" width="11.5" height="11.5"/>
	<rect x="0" y="57.7" fill="#555555" width="11.5" height="11.5"/>
	<rect x="0" y="69.2" fill="#FFFFFF" width="11.5" height="11.5"/>
	<rect x="11.5" y="69.2" fill="#555555" width="11.5" height="11.5"/>
	<rect x="23.1" y="69.2" fill="#FFFFFF" width="11.5" height="11.5"/>
	<rect x="23.1" y="80.8" fill="#555555" width="11.5" height="11.5"/>
	<rect x="11.5" y="80.8" fill="#FFFFFF" width="11.5" height="11.5"/>
	<rect x="0" y="80.8" fill="#555555" width="11.5" height="11.5"/>
	<rect x="0" y="92.3" fill="#FFFFFF" width="11.5" height="11.5"/>
	<rect x="11.5" y="92.3" fill="#555555" width="11.5" height="11.5"/>
	<rect x="23.1" y="92.3" fill="#FFFFFF" width="11.5" height="11.5"/>
	<rect x="23.1" y="103.8" fill="#555555" width="11.5" height="11.5"/>
	<rect x="11.5" y="103.8" fill="#FFFFFF" width="11.5" height="11.5"/>
	<rect x="0" y="103.8" fill="#555555" width="11.5" height="11.5"/>
	<rect x="0" y="115.4" fill="#FFFFFF" width="11.5" height="11.5"/>
	<rect x="11.5" y="115.4" fill="#555555" width="11.5" height="11.5"/>
	<rect x="23.1" y="115.4" fill="#FFFFFF" width="11.5" height="11.5"/>
	<rect x="23.1" y="126.9" fill="#555555" width="11.5" height="11.5"/>
	<rect x="11.5" y="126.9" fill="#FFFFFF" width="11.5" height="11.5"/>
	<rect x="0" y="126.9" fill="#555555" width="11.5" height="11.5"/>
	<rect x="0" y="138.5" fill="#FFFFFF" width="11.5" height="11.5"/>
	<rect x="11.5" y="138.5" fill="#555555" width="11.5" height="11.5"/>
	<rect x="23.1" y="138.5" fill="#FFFFFF" width="11.5" height="11.5"/>
	<rect x="23.1" y="150" fill="#555555" width="11.5" height="11.5"/>
	<rect x="11.5" y="150" fill="#FFFFFF" width="11.5" height="11.5"/>
	<rect x="0" y="150" fill="#555555" width="11.5" height="11.5"/>
	<rect x="0" y="161.5" fill="#FFFFFF" width="11.5" height="11.5"/>
	<rect x="11.5" y="161.5" fill="#555555" width="11.5" height="11.5"/>
	<rect x="23.1" y="161.5" fill="#FFFFFF" width="11.5" height="11.5"/>
	<rect x="23.1" y="173.1" fill="#555555" width="11.5" height="11.5"/>
	<rect x="11.5" y="173.1" fill="#FFFFFF" width="11.5" height="11.5"/>
	<rect x="0" y="173.1" fill="#555555" width="11.5" height="11.5"/>
	<rect x="0" y="184.6" fill="#FFFFFF" width="11.5" height="11.5"/>
	<rect x="11.5" y="184.6" fill="#555555" width="11.5" height="11.5"/>
	<rect x="23.1" y="184.6" fill="#FFFFFF" width="11.5" height="11.5"/>
	<rect x="23.1" y="196.2" fill="#555555" width="11.5" height="11.5"/>
	<rect x="11.5" y="196.2" fill="#FFFFFF" width="11.5" height="11.5"/>
	<rect x="0" y="196.2" fill="#555555" width="11.5" height="11.5"/>
	<rect x="0" y="207.7" fill="#FFFFFF" width="11.5" height="11.5"/>
	<rect x="11.5" y="207.7" fill="#555555" width="11.5" height="11.5"/>
	<rect x="23.1" y="207.7" fill="#FFFFFF" width="11.5" height="11.5"/>
	<rect x="23.1" y="219.2" fill="#555555" width="11.5" height="11.5"/>
	<rect x="11.5" y="219.2" fill="#FFFFFF" width="11.5" height="11.5"/>
	<rect x="0" y="219.2" fill="#555555" width="11.5" height="11.5"/>
	<rect x="0" y="230.8" fill="#FFFFFF" width="11.5" height="11.5"/>
	<rect x="11.5" y="230.8" fill="#555555" width="11.5" height="11.5"/>
	<rect x="23.1" y="230.8" fill="#FFFFFF" width="11.5" height="11.5"/>
	<rect x="23.1" y="242.3" fill="#555555" width="11.5" height="11.5"/>
	<rect x="11.5" y="242.3" fill="#FFFFFF" width="11.5" height="11.5"/>
	<rect x="0" y="242.3" fill="#555555" width="11.5" height="11.5"/>
	<rect x="0" y="253.8" fill="#FFFFFF" width="11.5" height="11.5"/>
	<rect x="11.5" y="253.8" fill="#555555" width="11.5" height="11.5"/>
	<rect x="23.1" y="253.8" fill="#FFFFFF" width="11.5" height="11.5"/>
	<rect x="23.1" y="265.4" fill="#555555" width="11.5" height="11.5"/>
	<rect x="11.5" y="265.4" fill="#FFFFFF" width="11.5" height="11.5"/>
	<rect x="0" y="265.4" fill="#555555" width="11.5" height="11.5"/>
	<rect x="0" y="276.9" fill="#FFFFFF" width="11.5" height="11.5"/>
	<rect x="11.5" y="276.9" fill="#555555" width="11.5" height="11.5"/>
	<rect x="23.1" y="276.9" fill="#FFFFFF" width="11.5" height="11.5"/>
	<rect x="23.1" y="288.5" fill="#555555" width="11.5" height="11.5"/>
	<rect x="11.5" y="288.5" fill="#FFFFFF" width="11.5" height="11.5"/>
	<rect x="0" y="288.5" fill="#555555" width="11.5" height="11.5"/>
	<rect x="0" y="300" fill="#FFFFFF" width="11.5" height="11.5"/>
	<rect x="11.5" y="300" fill="#555555" width="11.5" height="11.5"/>
	<rect x="23.1" y="300" fill="#FFFFFF" width="11.5" height="11.5"/>
	<rect x="23.1" y="311.5" fill="#555555" width="11.5" height="11.5"/>
	<rect x="11.5" y="311.5" fill="#FFFFFF" width="11.5" height="11.5"/>
	<rect x="0" y="311.5" fill="#555555" width="11.5" height="11.5"/>
	<rect x="0" y="323.1" fill="#FFFFFF" width="11.5" height="11.5"/>
	<rect x="11.5" y="323.1" fill="#555555" width="11.5" height="11.5"/>
	<rect x="23.1" y="323.1" fill="#FFFFFF" width="11.5" height="11.5"/>
	<rect x="23.1" y="334.6" fill="#555555" width="11.5" height="11.5"/>
	<rect x="11.5" y="334.6" fill="#FFFFFF" width="11.5" height="11.5"/>
	<rect x="0" y="334.6" fill="#555555" width="11.5" height="11.5"/>
	<rect x="0" y="346.2" fill="#FFFFFF" width="11.5" height="11.5"/>
	<rect x="11.5" y="346.2" fill="#555555" width="11.5" height="11.5"/>
	<rect x="23.1" y="346.2" fill="#FFFFFF" width="11.5" height="11.5"/>
	<rect x="23.1" y="357.7" fill="#555555" width="11.5" height="11.5"/>
	<rect x="11.5" y="357.7" fill="#FFFFFF" width="11.5" height="11.5"/>
	<rect x="0" y="357.7" fill="#555555" width="11.5" height="11.5"/>
</g>
</svg>
